<svg width="1902" height="1061" viewBox="0 0 1902 1061" fill="none" xmlns="http://www.w3.org/2000/svg">
<path d="M-18 1034.8C185.85 1026.49 364.965 919.388 522.645 812.546C562.245 785.712 601.095 758.142 639.645 730.363C668.25 709.708 699.21 685.514 735.36 679.199C789.825 669.689 819.795 713.983 842.91 753.222C872.64 803.666 897.915 857.98 943.845 896.739C1010.04 952.628 1093.53 952.238 1169.3 911.934C1276.71 854.65 1353 757.047 1453.5 693.674C1589.9 607.756 1755.84 657.825 1902 654.315V662.249C1756.8 664.349 1591.01 611.851 1455.1 697.604C1351.88 762.762 1276.83 865.855 1168.02 927.098C1091.01 970.402 1008.31 969.097 943.02 909.099C899.31 868.975 877.17 814.601 850.515 763.362C830.445 724.753 804.495 680.864 751.665 690.629C715.98 697.214 684.99 721.438 656.625 741.838C617.37 770.097 577.83 798.221 537.57 825.671C376.245 935.663 191.43 1051.25 -18 1061V1034.8Z" fill="url(#paint0_linear_71_300)"/>
<path d="M-18 991.687C178.065 986.242 349.005 892.359 501.84 790.016C540.63 764.037 578.595 737.188 616.14 710.068C644.895 689.279 676.56 666.149 713.37 661.739C769.155 655.065 805.305 699.239 833.58 737.878C869.58 787.166 900.735 842.335 952.08 878.274C1022.11 927.263 1107.96 922.058 1182.39 883.554C1288.11 828.835 1365.49 736.558 1465.08 676.559C1596.77 597.256 1761.92 643.995 1901.98 639.42V648.42C1755.82 652.62 1590.07 603.886 1453.86 689.759C1354.98 752.187 1278.22 846.4 1171.77 901.479C1096.77 940.223 1012.77 941.753 945.855 888.684C898.2 850.915 870.675 796.676 838.605 746.817C813.105 707.173 780.285 662.699 724.485 672.104C687.93 678.254 656.91 702.418 628.005 723.283C590.025 750.717 551.655 777.882 512.505 804.281C357.255 908.814 181.98 1009.99 -18 1017.17V991.687Z" fill="url(#paint1_linear_71_300)"/>
<path d="M-18 948.563C168.18 946.553 329.685 868.345 476.67 772.047C514.38 747.327 551.19 721.603 587.475 695.459C617.595 673.754 650.085 650.985 688.5 646.755C748.755 640.11 792.66 684.254 827.895 723.928C870.42 771.762 908.46 826.601 965.25 859.51C1037.4 901.299 1124.42 892.404 1197.3 856.345C1300.38 805.346 1377.42 719.848 1472.91 661.139C1601.1 582.361 1764.87 627.525 1901.91 622.77V632.58C1762.87 637.35 1598.16 591.391 1467.75 670.544C1370.04 729.913 1292.66 819.161 1188 872.124C1114.26 909.444 1027.92 916.118 957 870.205C903.42 835.51 869.445 780.477 830.715 731.818C799.575 692.684 760.215 648.54 702.615 655.185C665.115 659.519 633.18 682.499 603.885 703.648C566.865 730.378 529.41 756.762 491.07 782.217C340.8 881.979 173.88 969.322 -18 973.342V948.563Z" fill="url(#paint2_linear_71_300)"/>
<path d="M-18 905.454C158.22 906.954 310.5 845.065 451.89 754.977C488.55 731.623 524.22 707.053 559.275 681.959C591.045 659.234 624.705 636.96 665.055 632.805C730.59 626.1 782.64 670.484 825.465 710.803C874.875 757.302 920.55 811.781 983.4 841.3C1057.71 876.249 1145.78 862.78 1217.57 828.116C1317.83 779.712 1393.5 699.734 1485.12 641.985C1608.24 564.347 1769.59 608.716 1902 604.621V614.941C1766.79 619.44 1603.98 574.756 1477.86 653.1C1384.11 711.328 1307.55 794.321 1205.71 844.03C1133.37 879.354 1045.86 890.169 972.75 851.53C913.35 820.031 872.01 765.387 826.485 718.168C787.95 678.209 740.49 633.96 677.985 640.635C638.715 644.82 605.745 667.379 574.92 689.534C539.19 715.213 502.92 740.428 465.645 764.532C321.15 857.98 163.77 929.063 -18 929.513V905.454Z" fill="url(#paint3_linear_71_300)"/>
<path d="M-18 862.33C148.395 867.175 291.675 821.831 427.98 738.073C494.55 697.139 562.245 626.745 643.17 619.11C714.615 612.361 774.99 657.195 825.72 697.964C882.18 743.338 936 797.456 1005.24 823.481C1081.74 852.235 1170.46 833.38 1241.68 799.181C1339.03 752.412 1412.54 677.234 1500.48 619.98C1617.34 543.932 1775.56 588.106 1902 585.256V595.756C1772.19 599.341 1612.2 555.122 1491.82 632.085C1401.9 689.669 1327.16 767.382 1228.21 814.946C1156.77 849.31 1068.33 865.15 993.015 833.125C927.24 805.166 877.905 750.852 825.27 704.908C778.845 664.409 722.985 619.815 654.81 626.55C574.89 634.425 506.22 706.183 440.79 747.252C301.8 834.475 153.66 888.774 -18 885.684V862.33Z" fill="url(#paint4_linear_71_300)"/>
<path d="M-18 819.221C140.4 826.961 276.465 797.366 408.93 718.513C478.17 677.309 544.5 608.986 629.13 604.486C704.58 600.526 771.3 644.985 828.24 684.989C890.235 728.533 950.7 779.982 1023.92 803.981C1102.76 829.84 1191.53 806.156 1263.8 771.987C1359 726.988 1431.43 656.595 1515.27 598.141C1625.05 521.643 1781.43 566.477 1902 565.247V575.836C1778.74 577.951 1622.14 533.732 1508.58 608.836C1422.33 665.984 1350.07 739.108 1254.1 785.292C1182.93 819.551 1094.16 841.18 1016.59 815.111C944.145 790.751 886.485 736.768 826.665 691.829C772.14 650.88 707.835 605.731 633.42 612.466C551.595 619.86 484.665 689.099 417.06 729.898C283.095 810.746 143.805 848.125 -17.94 841.855L-18 819.221Z" fill="url(#paint5_linear_71_300)"/>
<path d="M-18 776.097C57 781.092 132.75 784.497 206.34 770.532C271.5 758.172 331.845 731.983 388.095 699.884C459.93 658.95 524.7 592.771 611.7 588.886C693.525 585.271 768.09 630.735 832.575 671.159C901.32 714.253 969.63 765.552 1049.34 786.402C1131.24 807.821 1218.58 777.582 1291.71 742.378C1335.05 721.513 1375.99 696.254 1414.86 668.729C1456.64 639.15 1492.98 603.316 1533.9 573.512C1636.08 499.068 1788.9 544.337 1902 544.847V555.227C1785 555.602 1630.5 510.543 1524.38 586.066C1442.32 644.535 1371.18 712.768 1277.45 757.482C1204.79 792.146 1116.66 818.981 1036.29 795.416C959.79 773.037 895.5 721.618 830.175 678.329C769.5 638.115 698.865 593.206 620.28 596.986C534.495 601.156 468.945 668.414 398.43 709.483C268.17 785.502 135.84 806.981 -18 797.981V776.097Z" fill="url(#paint6_linear_71_300)"/>
<path d="M-18 732.988C53.76 738.718 126.795 746.487 198 737.653C259.5 730.063 316.5 708.088 369.585 679.154C443.835 638.745 507.3 574.066 596.58 571.292C684.81 568.547 766.5 615.166 838.215 656.19C913.32 699.149 989.115 750.597 1075.05 768.492C1160.08 786.207 1245 749.352 1319.4 712.918C1361.06 692.48 1401.07 668.829 1439.05 642.18C1479.63 613.756 1513.53 578.746 1552.38 549.047C1646.88 476.779 1796.34 522.393 1901.88 524.553V534.527C1792.61 533.147 1641.55 487.699 1543.27 561.032C1503.4 590.776 1468.28 626.205 1427.15 655.215C1388.75 682.536 1348.2 706.704 1305.9 727.483C1232.16 763.242 1146 796.841 1062.45 777.402C979.53 758.097 907.365 706.753 835.32 663.764C767.04 623.04 688.875 577.141 603.735 580.291C515.595 583.561 451.425 649.005 378.39 689.669C323.79 720.073 265.245 744.102 201.96 754.002C129.585 765.312 55.23 759.627 -18 754.197V732.988Z" fill="url(#paint7_linear_71_300)"/>
<path d="M-18 689.864C115.5 701.489 233.505 718.288 354 655.635C430.605 615.811 492.615 552.347 584.145 550.817C678.39 549.242 766.65 597.661 844.845 639.45C925.68 682.664 1008.34 734.653 1100.02 749.937C1188.14 764.622 1269.75 721.333 1345.64 683.789C1385.96 664.099 1424.83 641.542 1461.93 616.29C1501.43 589.111 1532.88 555.197 1569.67 525.618C1657.05 455.359 1803.43 501.093 1901.98 504.618V514.008C1800.17 511.098 1652.4 465.379 1561.68 536.507C1524 566.237 1491.31 600.706 1451.32 628.485C1413.83 654.428 1374.44 677.532 1333.5 697.604C1258.35 734.653 1175.06 774.912 1088.39 758.862C999.375 742.363 919.89 690.704 841.68 647.67C766.47 606.271 681.18 558.782 589.8 560.972C499.32 563.147 436.62 627.12 361.095 667.229C309.405 694.694 254.115 714.583 194.355 719.833C124.11 725.983 52.5 716.338 -18 710.383V689.864Z" fill="url(#paint8_linear_71_300)"/>
<path d="M-18 649.078C109.38 660.087 224.43 689.307 341.775 630.808C420.405 591.584 480.915 528.81 574.545 528.975C674.22 529.11 768.12 579.854 851.88 622.738C937.605 666.612 1026.36 719.636 1123.08 732.761C1213.9 745.075 1291.59 695.651 1369.08 657.507C1408.08 638.323 1446.34 617.998 1482.21 594.074C1520.81 568.35 1549.92 535.98 1584.7 506.536C1665.7 437.988 1809.71 483.422 1902.06 487.831V496.486C1806.98 492.421 1662.06 446.792 1578.2 516.061C1542.49 545.58 1512.31 578.714 1473.33 605.159C1437.06 629.758 1398.33 650.968 1358.79 670.542C1282.06 708.506 1202.51 755.155 1112.79 741.835C1018.29 727.781 932.22 675.297 848.61 631.783C767.28 589.454 675.855 539.85 578.61 540.57C485.91 541.26 424.71 604.274 346.965 643.768C228.21 704.096 111.975 680.307 -18 668.877V649.078Z" fill="url(#paint9_linear_71_300)"/>
<path d="M-18 603.631C105 613.066 218.655 652.485 333.39 596.986C413.61 558.227 472.515 495.723 568.005 497.988C672.3 500.508 770.685 554.147 858.9 598.486C948.405 643.485 1042.2 698.159 1143.09 709.693C1235.98 720.298 1309.33 665.084 1388.2 627.285C1425.84 609.286 1463.45 591.151 1498.52 569.027C1536.39 545.117 1563.34 514.788 1596.17 485.614C1671.97 418.25 1814.35 462.754 1902 467.449V475.219C1812.45 470.569 1669.5 425.57 1591.5 493.383C1557.81 522.693 1530 553.997 1491.77 578.761C1456.5 601.861 1418.51 620.985 1380.32 639.6C1302.06 677.684 1226.74 730.393 1134.68 719.098C1035.51 706.933 943.8 653.1 855.825 608.626C769.425 564.992 672.825 512.703 570.51 511.323C475.8 510.048 416.175 572.597 336.6 611.536C220.785 668.234 106.68 632.985 -18 622.725V603.631Z" fill="url(#paint10_linear_71_300)"/>
<path d="M-18 560.522C102.465 567.347 216.45 614.176 329.385 560.522C410.61 521.928 467.79 459.139 564.795 464.299C672.645 470.029 774.09 527.193 865.44 573.481C957.39 620.07 1054.96 677.099 1159.01 687.749C1252.96 697.349 1321.8 636.75 1401.92 600.646C1438.36 584.221 1475.34 568.847 1509.81 549.017C1547.17 527.523 1572.26 499.788 1603.17 471.109C1675.35 404.18 1817.25 446.989 1902 451.159V457.939C1816.28 453.439 1674.31 409.805 1600.81 476.809C1569.09 505.728 1543.26 534.647 1505.7 557.252C1470.99 578.131 1433.7 594.751 1396.83 611.911C1317.21 648.915 1246.5 707.293 1152.8 697.334C1049.96 686.414 953.82 630.48 862.74 584.626C772.545 539.222 672.24 483.634 565.74 479.389C469.335 475.534 411.405 538.142 330.525 576.766C216.945 631.005 103.275 586.951 -18 578.896V560.522Z" fill="url(#paint11_linear_71_300)"/>
<path d="M-18 517.398C104.13 520.638 219.63 571.967 333.36 516.678C408 480.424 462.765 419.99 552 423.635C666.96 428.42 774.885 494.043 871.065 544.532C964.71 593.686 1065.02 654.585 1172.11 664.019C1263.87 672.119 1325.62 608.911 1404.8 576.721C1440.61 562.172 1477.5 550.127 1512.09 533.312C1549.92 514.938 1573.85 491.628 1603.01 462.814C1673.36 393.426 1817.08 433.67 1902 436.655V442.34C1817.2 438.695 1673.9 397.146 1603.17 466.204C1573.29 495.393 1548.84 520.203 1510.86 539.957C1476.14 558.077 1439.05 571.607 1402.86 587.086C1323.94 620.85 1260.51 682.094 1168.44 673.949C1061.94 664.559 962.4 605.116 868.905 556.862C773.145 507.468 665.535 443.825 551.385 440.99C462.375 438.71 407.04 498.678 332.385 534.857C218.505 589.951 103.98 539.987 -18 535.067V517.398Z" fill="url(#paint12_linear_71_300)"/>
<path d="M-18 474.289C104.715 475.789 224.025 534.497 338.91 480.649C413.79 445.58 467.655 383.886 556.875 389.331C671.64 396.351 778.725 464.164 874.23 515.883C966.915 566.072 1066.92 628.68 1173.78 638.37C1264.35 646.59 1323.2 581.101 1403.48 554.492C1438.59 542.852 1475.03 535.112 1509.29 521.658C1547.4 506.658 1570.32 486.334 1598.59 458.224C1669.76 387.486 1814.98 422.225 1902 424.115V428.99C1816.05 426.92 1671.35 389.421 1600.76 459.604C1572.26 487.849 1549.09 508.953 1511.32 525.228C1476.97 540.032 1440.31 549.482 1405.01 562.382C1325.35 591.466 1265.7 656.715 1174.71 648.51C1067.35 638.835 966.765 576.226 873.495 526.038C777.36 474.289 669.66 406.49 554.34 399.456C464.955 394.026 410.79 455.374 336.285 491.433C222.285 546.617 104.61 492.558 -18 491.238V474.289Z" fill="url(#paint13_linear_71_300)"/>
<path d="M-18 431.165C59.055 431.75 126.195 448.249 198.975 465.979C252.105 478.924 299.865 476.659 349.92 455.104C426.6 422.105 478.77 360.337 569.1 366.381C681.45 373.881 784.98 441.635 877.5 493.878C966.18 544.007 1062.53 606.841 1166.19 615.871C1256.4 623.73 1311.8 555.662 1392.98 533.372C1427.73 523.818 1463.73 520.023 1498.21 510.333C1538.01 499.143 1561.32 480.469 1592.85 455.629C1676.49 389.751 1804.86 406.13 1902 409.31V415.49C1808.66 412.61 1674.54 388.821 1595.37 456.589C1565.01 482.569 1542.08 501.873 1502.94 514.488C1468.58 525.573 1432.44 530.913 1397.66 541.127C1316.66 564.887 1260.24 632.025 1169.66 624.03C1064.66 614.761 966.795 552.032 876.435 501.888C782.64 449.809 677.61 382.056 564.21 374.751C474.21 368.931 421.425 430.61 345.375 464.509C296.055 486.499 248.355 490.953 195.135 479.509C123.6 464.044 57.24 448.099 -18 447.409V431.165Z" fill="url(#paint14_linear_71_300)"/>
<path d="M-18 388.056C64.2 388.536 134.025 406.745 210 430.775C262.965 447.544 311.22 451.549 363.675 431.315C441.675 401.316 492.675 338.932 583.05 345.637C691.905 353.722 790.725 421.535 878.955 474.304C962.46 524.238 1053.99 587.476 1153.45 595.936C1242.99 603.541 1295.11 531.767 1376.95 514.083C1411.98 506.583 1447.91 506.268 1482.93 500.088C1524.68 492.723 1549.78 475.819 1584.33 453.334C1678.15 392.271 1795.52 387.096 1901.98 390.111V397.491C1798.74 394.236 1678.09 391.371 1587.67 454.129C1554.21 477.364 1529.86 494.928 1488.85 503.628C1454.06 511.038 1418.15 512.553 1383.29 520.818C1301.61 540.152 1248.38 610.516 1158.54 602.821C1057.44 594.166 964.065 531.093 878.565 481.084C788.655 428.48 688.065 360.711 577.8 352.837C487.305 346.372 435.93 408.455 358.395 439.655C306.855 460.399 258.84 458.704 205.83 443.315C131.055 421.625 62.295 404.075 -18 403.58V388.056Z" fill="url(#paint15_linear_71_300)"/>
<path d="M-18 344.992C69.765 345.607 143.01 365.901 222.09 396.456C275.01 416.915 324.255 427.67 379.59 409.13C458.22 382.761 508.695 319.433 598.32 326.842C702.855 335.497 796.005 403.491 878.925 456.679C956.265 506.283 1042.07 570.077 1136.67 577.996C1225.01 585.406 1274.47 509.478 1356.68 496.248C1392.45 490.488 1428.68 493.623 1464.41 490.713C1508.37 487.114 1536.07 472.174 1573.65 451.249C1675.77 394.401 1787.4 365.886 1902.03 367.371V375.561C1790.07 373.416 1677.03 393.756 1577.55 451.969C1541.02 473.359 1514.28 488.989 1471.05 493.878C1435.56 497.883 1399.5 495.888 1364.01 502.263C1281.9 517.008 1231.58 591.466 1142.76 583.996C1046.42 575.881 958.545 512.313 878.985 462.499C794.175 409.49 699 341.542 592.89 333.082C502.89 325.897 452.295 388.866 373.89 416.555C319.605 435.725 270.75 427.325 217.89 408.125C139.89 379.836 67.89 360.307 -17.91 359.752L-18 344.992Z" fill="url(#paint16_linear_71_300)"/>
<path d="M-18 301.823C75.69 302.768 153 325.537 235.215 362.721C288.24 386.721 338.865 404.57 397.305 388.101C476.19 365.886 526.665 301.343 614.805 309.488C714.435 318.698 801.15 386.916 877.95 440.42C948.45 489.483 1027.76 553.997 1116.87 561.407C1203.63 568.622 1250.73 488.359 1333.09 479.299C1369.99 475.249 1406.7 481.684 1443.36 481.804C1489.74 481.954 1520.44 469.069 1561.23 449.119C1670.64 395.616 1780.23 342.817 1901.98 341.827V350.407C1782.45 350.512 1672.48 395.301 1565.43 449.794C1525.71 470.014 1496.02 483.574 1450.45 484.639C1414.09 485.494 1377.58 480.139 1341.07 484.744C1258.77 495.138 1210.91 573.961 1123.57 566.687C1032.61 559.112 951.075 494.853 878.31 445.58C799.5 392.166 710.58 323.992 609.285 314.993C520.59 307.088 470.175 371.226 391.32 394.836C333.93 412.025 283.8 396.516 230.82 373.671C149.595 338.662 73.695 316.673 -18.015 315.923L-18 301.823Z" fill="url(#paint17_linear_71_300)"/>
<path d="M-18 258.699C81.93 260.199 163.59 285.788 249.105 329.647C302.43 356.992 354.735 382.146 416.475 368.211C495.225 350.392 546.21 284.558 632.385 293.423C726.78 303.143 806.535 371.631 876.615 425.315C939.615 473.569 1012.03 538.982 1095.33 545.837C1133.39 548.972 1166.07 535.787 1195.05 512.673C1229.55 485.164 1262.55 465.844 1307.55 463.039C1345.68 460.639 1383.29 469.984 1420.82 473.284C1469.52 477.574 1503.95 466.309 1547.82 447.079C1664.54 395.916 1773.63 318.533 1902.02 314.573V323.182C1775.64 326.182 1666.52 395.931 1552.08 447.679C1509.26 467.074 1475.88 479.014 1427.95 475.879C1390.71 473.449 1353.36 465.109 1315.65 468.019C1271.08 471.454 1238.15 490.638 1203.69 517.758C1174.11 541.022 1140.69 553.757 1102.17 550.577C1017 543.572 942.405 478.489 877.05 429.92C804.825 376.281 722.865 307.868 626.82 298.298C540 289.658 489.225 355.102 410.4 374.301C349.68 389.091 297.9 366.186 244.725 339.802C160.215 298.088 79.95 273.369 -18 272.094V258.699Z" fill="url(#paint18_linear_71_300)"/>
<path d="M-18 215.59C88.395 217.675 174.72 246.519 263.505 297.023C317.355 327.652 371.505 360.277 436.635 349.147C514.995 335.767 566.865 268.704 650.79 278.258C739.845 288.398 812.325 357.172 875.355 410.885C930.63 457.984 995.76 524.493 1073.05 530.732C1109.59 533.732 1139.83 518.913 1166.8 496.353C1201.3 467.524 1235.01 447.814 1281.05 446.974C1320.61 446.254 1359.04 458.824 1397.51 464.854C1448.71 472.894 1486.5 463.864 1533.85 444.965C1606.39 416.03 1671.77 380.826 1737.27 340.177C1790.34 307.178 1839.54 289.703 1902 286.403V294.728C1840.65 297.593 1790.77 313.793 1737.67 344.737C1672.77 382.566 1608.37 416.735 1537.98 445.595C1491.66 464.569 1454.85 474.274 1404.39 467.344C1366.2 462.109 1328.01 450.484 1288.89 451.699C1243.19 453.124 1209.66 472.699 1175.18 501.198C1147.6 523.938 1116.68 538.217 1079.64 535.202C1000.58 528.768 933.285 462.604 875.64 415.205C810.51 361.491 735.885 292.793 645.255 282.773C560.64 273.414 509.07 340.132 430.575 354.772C366.45 366.771 312.855 336.322 259.185 306.653C171.405 257.994 86.475 230.155 -18 228.265V215.59Z" fill="url(#paint19_linear_71_300)"/>
<path d="M-18 172.496C95.04 175.346 186.165 207.655 278.22 264.759C332.82 298.628 388.875 338.662 457.38 330.757C535.38 321.757 588.12 253.854 669.87 263.754C753.615 273.909 818.955 343.387 874.65 396.786C922.155 442.34 979.875 510.123 1051.2 515.643C1086.19 518.358 1113.99 501.828 1138.92 479.914C1173 449.989 1207.99 428.99 1254.81 430.745C1295.95 432.245 1334.86 447.559 1374.38 456.244C1428 468.079 1469.08 461.374 1519.99 442.745C1599.75 413.495 1669.02 375.066 1735.99 324.727C1788.85 284.963 1835.49 263.019 1902.06 258.249V266.019C1836.68 270.384 1789.27 291.143 1736.35 329.017C1669.72 376.671 1601.64 414.215 1523.86 443.39C1473.95 462.124 1433.76 469.489 1380.8 458.719C1341.53 450.739 1302.8 436.325 1262.05 435.32C1215.55 434.18 1180.68 454.984 1146.55 484.504C1121.05 506.613 1092.56 522.633 1057.17 519.843C984.195 514.113 924.42 446.704 874.755 400.671C817.095 347.212 749.67 277.778 664.515 267.729C582.135 258.009 529.71 325.567 451.515 335.797C384.015 344.662 328.425 306.668 274.065 273.699C183 218.395 93.18 187.076 -18 184.496V172.496Z" fill="url(#paint20_linear_71_300)"/>
<path d="M-18 129.357C100.5 132.972 196.8 168.176 291.18 231.355C346.005 268.089 403.98 315.638 474.795 312.728C557.565 309.383 613.41 233.995 699 250.989C773.19 265.764 828.21 331.417 875.04 382.386C914.43 425.255 965.04 493.923 1029.54 499.968C1067.04 503.478 1093.08 480.469 1118.04 457.474C1151.2 426.89 1188.18 409.475 1234.32 414.335C1276.53 418.835 1315.64 437.3 1355.82 448.279C1412.34 463.699 1458.45 457.084 1513.32 438.125C1598.11 408.86 1670.16 367.086 1736.19 308.423C1788 262.404 1831.74 236.994 1902 230.995V237.999C1832.91 243.684 1788.42 268.119 1736.43 312.428C1671.75 368.059 1597.14 410.962 1516.53 438.875C1462.53 457.819 1417.26 465.049 1361.37 450.679C1321.34 440.375 1282.35 422.75 1240.48 418.82C1194.49 414.485 1157.71 431.9 1124.49 462.199C1098.99 485.449 1072.38 507.798 1034.49 504.198C968.49 497.928 916.095 429.65 874.785 386.226C826.2 335.227 769.38 269.514 693.975 254.769C607.74 237.924 552.315 313.028 469.35 317.588C399.375 321.442 341.85 275.754 287.34 239.874C193.8 178.241 98.805 143.997 -18 140.622V129.357Z" fill="url(#paint21_linear_71_300)"/>
<path d="M-18 86.233C107.16 90.7329 208.32 129.657 305.79 199.285C361.77 239.274 421.47 293.783 495.405 294.608C577.62 295.523 635.025 218.92 718.32 236.589C788.205 251.409 836.52 317.033 876.945 367.491C909.045 407.57 953.085 478.714 1011.95 483.244C1047.8 486.004 1071.95 460.924 1095.03 438.77C1127.91 407.12 1165.41 389.556 1212.03 396.771C1255.44 403.49 1294.83 425.27 1335.7 438.905C1394.43 458.494 1443.42 454.249 1502.02 435.32C1593.1 405.89 1670.03 361.521 1735.84 293.873C1753.74 275.468 1770.77 255.954 1791.44 240.594C1825.29 215.41 1861.01 209.305 1902.02 205.435V211.435C1861.41 215.215 1825.89 221.23 1791.98 245.529C1771.22 260.409 1753.92 279.383 1735.86 297.323C1669.95 362.811 1594.23 406.595 1504.65 436.01C1446.94 454.954 1398.61 459.799 1340.4 441.245C1299.66 428.27 1260.3 407.3 1217.18 401.151C1170.68 394.536 1133.28 412.085 1100.31 443.48C1076.78 465.889 1052.31 490.323 1015.96 487.444C955.8 482.674 910.065 411.905 876.315 371.196C834.315 320.602 784.455 254.949 713.58 240.129C629.775 222.595 572.73 298.928 490.41 299.048C417.24 299.153 357.93 246.324 302.25 207.13C205.5 139.062 105.525 101.068 -18 96.7927V86.233Z" fill="url(#paint22_linear_71_300)"/>
<path d="M-18 43.109C113.745 48.4939 219.585 91.2429 320.055 167.111C377.325 210.355 438.45 271.659 515.385 276.338C597.465 281.333 656.205 203.695 737.865 221.785C804.105 236.454 846.315 301.808 880.935 351.637C906.885 388.971 944.25 461.599 998.355 464.989C1032.56 467.119 1055.82 439.415 1076.9 418.265C1109.32 385.746 1146.9 368.136 1193.57 377.766C1237.88 386.976 1277.16 412.175 1318.38 428.555C1378.86 452.554 1430.32 450.844 1492.47 432.095C1589.32 402.876 1671.51 356.452 1736.35 280.373C1753.51 260.229 1769.35 238.599 1789.53 221.38C1823.06 192.88 1859.46 186.626 1902.03 182.501V187.496C1859.81 191.59 1823.57 197.83 1789.94 225.625C1769.6 242.439 1753.51 263.619 1736.16 283.373C1671 357.592 1590 403.611 1494.46 432.905C1433.11 451.714 1382.16 454.039 1322.04 431.06C1280.86 415.31 1241.52 390.906 1197.39 382.296C1150.71 373.191 1113.1 390.786 1080.55 423.125C1059.06 444.5 1035.55 471.604 1001.05 469.309C945.915 465.649 907.065 393.336 879.795 355.312C843.93 305.393 800.4 239.994 733.395 225.22C651.435 207.22 592.965 284.618 510.9 280.538C434.64 276.743 373.815 216.97 316.845 174.461C217.035 100.018 112.245 58.1386 -18 52.9638V43.109Z" fill="url(#paint23_linear_71_300)"/>
<path d="M-18 0C120.165 6.22485 230.49 52.8138 333.78 134.787C392.28 181.286 454.635 249.084 534.345 257.784C616.845 266.784 676.59 188.066 757.47 206.275C820.875 220.57 857.79 285.293 887.475 334.462C908.295 368.961 939.66 442.745 989.715 444.755C1022.46 446.059 1045.41 415.79 1064.88 395.496C1096.66 362.346 1133.66 344.782 1180.02 357.232C1224.85 369.231 1263.53 398.046 1304.73 417.23C1366.36 445.999 1419.79 446.959 1485.33 428.63C1587.21 400.131 1674.89 352.357 1738.09 268.554C1754.39 246.969 1768.76 223.555 1788.36 204.73C1821.21 173.231 1858.26 167.231 1902 163.271V167.021C1858.5 171.101 1821.55 177.131 1788.54 208.045C1768.79 226.54 1754.04 249.609 1737.54 270.924C1673.92 353.167 1587.45 400.701 1486.56 429.41C1421.73 447.859 1368.66 447.484 1307.22 419.75C1265.97 401.136 1227.12 373.131 1182.36 361.731C1135.86 349.882 1098.7 367.461 1066.86 400.506C1047.07 420.95 1024.11 450.709 991.08 449.194C940.245 446.869 907.68 373.281 885.87 338.197C855.225 288.908 817.275 224.005 753.33 209.605C672.33 191.38 612.765 269.829 530.445 261.729C451.305 253.929 389.235 187.466 330.945 141.732C228.225 60.9586 118.83 15.1796 -18 9.13478V0Z" fill="url(#paint24_linear_71_300)"/>
<defs>
<linearGradient id="paint0_linear_71_300" x1="-30.9847" y1="691.822" x2="1826.13" y2="1115" gradientUnits="userSpaceOnUse">
<stop stop-color="#00FFFF"/>
<stop offset="0.692708" stop-color="white"/>
<stop offset="1" stop-color="white" stop-opacity="0.24"/>
</linearGradient>
<linearGradient id="paint1_linear_71_300" x1="-30.9846" y1="675.122" x2="1811.12" y2="1128.17" gradientUnits="userSpaceOnUse">
<stop stop-color="#00FFFF"/>
<stop offset="0.692708" stop-color="white"/>
<stop offset="1" stop-color="white" stop-opacity="0.24"/>
</linearGradient>
<linearGradient id="paint2_linear_71_300" x1="-30.9841" y1="656.12" x2="1794.13" y2="1140.1" gradientUnits="userSpaceOnUse">
<stop stop-color="#00FFFF"/>
<stop offset="0.692708" stop-color="white"/>
<stop offset="1" stop-color="white" stop-opacity="0.24"/>
</linearGradient>
<linearGradient id="paint3_linear_71_300" x1="-30.9847" y1="634.681" x2="1775.49" y2="1150.12" gradientUnits="userSpaceOnUse">
<stop stop-color="#00FFFF"/>
<stop offset="0.692708" stop-color="white"/>
<stop offset="1" stop-color="white" stop-opacity="0.24"/>
</linearGradient>
<linearGradient id="paint4_linear_71_300" x1="-30.9847" y1="611.377" x2="1754.76" y2="1158.78" gradientUnits="userSpaceOnUse">
<stop stop-color="#00FFFF"/>
<stop offset="0.692708" stop-color="white"/>
<stop offset="1" stop-color="white" stop-opacity="0.24"/>
</linearGradient>
<linearGradient id="paint5_linear_71_300" x1="-30.9847" y1="587.103" x2="1731.4" y2="1167.53" gradientUnits="userSpaceOnUse">
<stop stop-color="#00FFFF"/>
<stop offset="0.692708" stop-color="white"/>
<stop offset="1" stop-color="white" stop-opacity="0.24"/>
</linearGradient>
<linearGradient id="paint6_linear_71_300" x1="-30.9847" y1="562.724" x2="1711.33" y2="1169.38" gradientUnits="userSpaceOnUse">
<stop stop-color="#00FFFF"/>
<stop offset="0.692708" stop-color="white"/>
<stop offset="1" stop-color="white" stop-opacity="0.24"/>
</linearGradient>
<linearGradient id="paint7_linear_71_300" x1="-30.9839" y1="540.483" x2="1712.83" y2="1145.06" gradientUnits="userSpaceOnUse">
<stop stop-color="#00FFFF"/>
<stop offset="0.692708" stop-color="white"/>
<stop offset="1" stop-color="white" stop-opacity="0.24"/>
</linearGradient>
<linearGradient id="paint8_linear_71_300" x1="-30.9846" y1="518.973" x2="1714.27" y2="1121.87" gradientUnits="userSpaceOnUse">
<stop stop-color="#00FFFF"/>
<stop offset="0.692708" stop-color="white"/>
<stop offset="1" stop-color="white" stop-opacity="0.24"/>
</linearGradient>
<linearGradient id="paint9_linear_71_300" x1="-30.9851" y1="501.158" x2="1713.54" y2="1105.11" gradientUnits="userSpaceOnUse">
<stop stop-color="#00FFFF"/>
<stop offset="0.692708" stop-color="white"/>
<stop offset="1" stop-color="white" stop-opacity="0.24"/>
</linearGradient>
<linearGradient id="paint10_linear_71_300" x1="-30.9847" y1="480.482" x2="1709.08" y2="1089.97" gradientUnits="userSpaceOnUse">
<stop stop-color="#00FFFF"/>
<stop offset="0.692708" stop-color="white"/>
<stop offset="1" stop-color="white" stop-opacity="0.24"/>
</linearGradient>
<linearGradient id="paint11_linear_71_300" x1="-30.9847" y1="464.771" x2="1698.45" y2="1087.34" gradientUnits="userSpaceOnUse">
<stop stop-color="#00FFFF"/>
<stop offset="0.692708" stop-color="white"/>
<stop offset="1" stop-color="white" stop-opacity="0.24"/>
</linearGradient>
<linearGradient id="paint12_linear_71_300" x1="-30.9847" y1="451.843" x2="1678.89" y2="1097.32" gradientUnits="userSpaceOnUse">
<stop stop-color="#00FFFF"/>
<stop offset="0.692708" stop-color="white"/>
<stop offset="1" stop-color="white" stop-opacity="0.24"/>
</linearGradient>
<linearGradient id="paint13_linear_71_300" x1="-30.9847" y1="419.406" x2="1691.73" y2="1050.01" gradientUnits="userSpaceOnUse">
<stop stop-color="#00FFFF"/>
<stop offset="0.692708" stop-color="white"/>
<stop offset="1" stop-color="white" stop-opacity="0.24"/>
</linearGradient>
<linearGradient id="paint14_linear_71_300" x1="-30.9847" y1="396.205" x2="1689.35" y2="1029.61" gradientUnits="userSpaceOnUse">
<stop stop-color="#00FFFF"/>
<stop offset="0.692708" stop-color="white"/>
<stop offset="1" stop-color="white" stop-opacity="0.24"/>
</linearGradient>
<linearGradient id="paint15_linear_71_300" x1="-30.9846" y1="375.321" x2="1688.63" y2="1009.55" gradientUnits="userSpaceOnUse">
<stop stop-color="#00FFFF"/>
<stop offset="0.692708" stop-color="white"/>
<stop offset="1" stop-color="white" stop-opacity="0.24"/>
</linearGradient>
<linearGradient id="paint16_linear_71_300" x1="-30.9849" y1="356.429" x2="1688.67" y2="990.671" gradientUnits="userSpaceOnUse">
<stop stop-color="#00FFFF"/>
<stop offset="0.692708" stop-color="white"/>
<stop offset="1" stop-color="white" stop-opacity="0.24"/>
</linearGradient>
<linearGradient id="paint17_linear_71_300" x1="-30.9997" y1="332.833" x2="1699.51" y2="954.09" gradientUnits="userSpaceOnUse">
<stop stop-color="#00FFFF"/>
<stop offset="0.692708" stop-color="white"/>
<stop offset="1" stop-color="white" stop-opacity="0.24"/>
</linearGradient>
<linearGradient id="paint18_linear_71_300" x1="-30.9848" y1="292.867" x2="1735.09" y2="868.292" gradientUnits="userSpaceOnUse">
<stop stop-color="#00FFFF"/>
<stop offset="0.692708" stop-color="white"/>
<stop offset="1" stop-color="white" stop-opacity="0.24"/>
</linearGradient>
<linearGradient id="paint19_linear_71_300" x1="-30.9847" y1="252.99" x2="1763.56" y2="787.161" gradientUnits="userSpaceOnUse">
<stop stop-color="#00FFFF"/>
<stop offset="0.692708" stop-color="white"/>
<stop offset="1" stop-color="white" stop-opacity="0.24"/>
</linearGradient>
<linearGradient id="paint20_linear_71_300" x1="-30.9851" y1="213.128" x2="1786.2" y2="711.034" gradientUnits="userSpaceOnUse">
<stop stop-color="#00FFFF"/>
<stop offset="0.692708" stop-color="white"/>
<stop offset="1" stop-color="white" stop-opacity="0.24"/>
</linearGradient>
<linearGradient id="paint21_linear_71_300" x1="-30.9847" y1="173.21" x2="1804.28" y2="639.12" gradientUnits="userSpaceOnUse">
<stop stop-color="#00FFFF"/>
<stop offset="0.692708" stop-color="white"/>
<stop offset="1" stop-color="white" stop-opacity="0.24"/>
</linearGradient>
<linearGradient id="paint22_linear_71_300" x1="-30.9848" y1="133.15" x2="1818.44" y2="571.995" gradientUnits="userSpaceOnUse">
<stop stop-color="#00FFFF"/>
<stop offset="0.692708" stop-color="white"/>
<stop offset="1" stop-color="white" stop-opacity="0.24"/>
</linearGradient>
<linearGradient id="paint23_linear_71_300" x1="-30.9849" y1="92.9353" x2="1829.7" y2="508.675" gradientUnits="userSpaceOnUse">
<stop stop-color="#00FFFF"/>
<stop offset="0.692708" stop-color="white"/>
<stop offset="1" stop-color="white" stop-opacity="0.24"/>
</linearGradient>
<linearGradient id="paint24_linear_71_300" x1="-30.9847" y1="52.5042" x2="1838.51" y2="448.901" gradientUnits="userSpaceOnUse">
<stop stop-color="#00FFFF"/>
<stop offset="0.692708" stop-color="white"/>
<stop offset="1" stop-color="white" stop-opacity="0.24"/>
</linearGradient>
</defs>
</svg>
