<svg width="246" height="56" fill="none" xmlns="http://www.w3.org/2000/svg"><path fill="#fff" d="M0 0h246v56H0z"/><path d="M64.784 27.584c1.088.688 1.504 1.68 1.504 2.8 0 2.272-1.6 3.616-4.192 3.616h-5.008V22.08h5.008c2.288 0 3.712 1.264 3.712 3.296 0 .864-.32 1.632-1.024 2.208zm-5.68-3.792v2.976h3.056c.96 0 1.584-.592 1.584-1.488 0-.88-.624-1.488-1.584-1.488h-3.056zm3.168 8.432c1.184 0 1.968-.736 1.968-1.84s-.784-1.84-1.968-1.84h-3.168v3.68h3.168zm13.436-2.848c0 .304-.032.608-.096.864h-6.336c.096 1.376 1.104 2.256 2.432 2.256 1.024 0 1.712-.496 2.096-1.2l1.584.768c-.528 1.232-1.936 2.128-3.696 2.128-2.608 0-4.416-1.984-4.416-4.512 0-2.592 1.84-4.496 4.272-4.496 2.432 0 4.16 1.904 4.16 4.192zm-6.4-.624h4.336c-.064-1.152-.992-1.968-2.096-1.968-1.12 0-2.016.704-2.24 1.968zm10.884 5.44c-1.792 0-3.264-.912-3.808-2.416l1.488-.72c.448 1.024 1.296 1.568 2.32 1.568.864 0 1.424-.4 1.424-.992s-.608-.848-1.136-.992l-1.472-.384c-1.504-.416-2.256-1.296-2.256-2.464 0-1.552 1.296-2.608 3.2-2.608 1.696 0 3.04.848 3.568 2.224l-1.504.704c-.32-.816-1.088-1.312-2.064-1.312-.8 0-1.296.368-1.296.912s.544.816 1.04.96l1.536.432c1.488.416 2.288 1.28 2.288 2.48 0 1.552-1.36 2.608-3.328 2.608zm8.53-.096c-1.936 0-3.024-1.088-3.024-2.992v-4H84.13v-1.728h.256c.832 0 1.312-.464 1.312-1.296v-1.376h1.92v2.672h2.048v1.728h-2.048v4c0 .736.304 1.424 1.52 1.424.16 0 .368-.016.576-.048v1.536a6.91 6.91 0 01-.992.08zm5.61.096c-1.791 0-3.263-.912-3.807-2.416l1.488-.72c.448 1.024 1.296 1.568 2.32 1.568.864 0 1.424-.4 1.424-.992s-.608-.848-1.136-.992l-1.472-.384c-1.504-.416-2.256-1.296-2.256-2.464 0-1.552 1.296-2.608 3.2-2.608 1.696 0 3.04.848 3.568 2.224l-1.504.704c-.32-.816-1.088-1.312-2.064-1.312-.8 0-1.296.368-1.296.912s.544.816 1.04.96l1.536.432c1.488.416 2.288 1.28 2.288 2.48 0 1.552-1.36 2.608-3.328 2.608zm12.595-4.816c0 .304-.032.608-.096.864h-6.336c.096 1.376 1.104 2.256 2.432 2.256 1.024 0 1.712-.496 2.096-1.2l1.584.768c-.528 1.232-1.936 2.128-3.696 2.128-2.608 0-4.416-1.984-4.416-4.512 0-2.592 1.84-4.496 4.272-4.496 2.432 0 4.16 1.904 4.16 4.192zm-6.4-.624h4.336c-.064-1.152-.992-1.968-2.096-1.968-1.12 0-2.016.704-2.24 1.968zm7.62 5.248V22.08h1.92V34h-1.92zm3.765 0V22.08h1.92V34h-1.92zm11.718-4.624c0 .304-.032.608-.096.864h-6.336c.096 1.376 1.104 2.256 2.432 2.256 1.024 0 1.712-.496 2.096-1.2l1.584.768c-.528 1.232-1.936 2.128-3.696 2.128-2.608 0-4.416-1.984-4.416-4.512 0-2.592 1.84-4.496 4.272-4.496 2.432 0 4.16 1.904 4.16 4.192zm-6.4-.624h4.336c-.064-1.152-.992-1.968-2.096-1.968-1.12 0-2.016.704-2.24 1.968zm11.764-3.472h.8v1.728h-1.04c-1.184 0-1.984.768-1.984 2.112V34h-1.92v-8.624h1.808v1.2c.448-.944 1.28-1.296 2.336-1.296zm5.261 8.912c-1.792 0-3.264-.912-3.808-2.416l1.488-.72c.448 1.024 1.296 1.568 2.32 1.568.864 0 1.424-.4 1.424-.992s-.608-.848-1.136-.992l-1.472-.384c-1.504-.416-2.256-1.296-2.256-2.464 0-1.552 1.296-2.608 3.2-2.608 1.696 0 3.04.848 3.568 2.224l-1.504.704c-.32-.816-1.088-1.312-2.064-1.312-.8 0-1.296.368-1.296.912s.544.816 1.04.96l1.536.432c1.488.416 2.288 1.28 2.288 2.48 0 1.552-1.36 2.608-3.328 2.608z" fill="#0D086C"/><g clip-path="url(#clip0_71_380)"><path d="M174 43c8.284 0 15-6.716 15-15 0-8.284-6.716-15-15-15-8.284 0-15 6.716-15 15 0 8.284 6.716 15 15 15z" fill="#5251C5"/><path d="M188.958 29.133l-12.146-12.146-13.825 13.825 12.146 12.146c7.381-.552 13.273-6.444 13.825-13.825z" fill="#1F1D80"/><path d="M172.902 26.86l-5.992-5.992.018-.202 3.678-3.679a4.388 4.388 0 016.206 6.206l-3.678 3.678-.232-.01z" fill="#fff"/><path d="M176.812 23.193l-3.678 3.678-.232-.01-2.982-2.982 6.892-6.892a4.373 4.373 0 011.285 3.103 4.373 4.373 0 01-1.285 3.103z" fill="#D1FEFB"/><path d="M162.987 30.812a4.39 4.39 0 010-6.206l3.941-3.94 6.206 6.205-3.941 3.94a4.388 4.388 0 01-6.206 0z" fill="#91DDFF"/><path d="M173.134 26.871l-3.941 3.94a4.387 4.387 0 01-6.205 0l7.043-7.043 3.103 3.103z" fill="#5ECBF1"/><path d="M175.099 29.14l5.992 5.992-.019.203-3.678 3.678a4.388 4.388 0 01-6.206-6.206l3.679-3.678.232.01z" fill="#fff"/><path d="M181.072 35.335l-3.678 3.678a4.388 4.388 0 01-6.206 0l6.892-6.892 3.011 3.011-.019.203z" fill="#D1FEFB"/><path d="M185.013 25.188a4.39 4.39 0 010 6.206l-3.941 3.94-6.206-6.205 3.941-3.94a4.388 4.388 0 016.206 0z" fill="#FF405C"/><path d="M185.013 31.394l-3.941 3.94-3.103-3.102 7.044-7.044a4.39 4.39 0 010 6.206z" fill="#D01273"/></g><defs><clipPath id="clip0_71_380"><path fill="#fff" transform="translate(159 13)" d="M0 0h30v30H0z"/></clipPath></defs></svg>