<svg width="18" height="18" fill="none" xmlns="http://www.w3.org/2000/svg"><path d="M15.617 2.383A3.014 3.014 0 0012.668 0H3.014A3.017 3.017 0 000 3.014v9.655c0 1.422.993 2.65 2.383 2.948A3.011 3.011 0 005.331 18h9.656A3.017 3.017 0 0018 14.987V5.33a3.01 3.01 0 00-2.383-2.948zM1.239 12.67V3.013a1.776 1.776 0 011.775-1.775h9.655a1.766 1.766 0 011.775 1.775v9.655a1.776 1.776 0 01-1.775 1.775H3.014l-.057-.001a1.765 1.765 0 01-1.718-1.774zm15.522 2.317a1.776 1.776 0 01-1.774 1.774H5.33a1.773 1.773 0 01-1.633-1.078h8.971a3.017 3.017 0 003.014-3.013V3.698a1.772 1.772 0 011.078 1.633v9.656z" fill="#fff"/></svg>4V12.6695C14.4428 13.649 13.6491 14.4428 12.6695 14.4439H3.01374C2.99581 14.4439 2.97834 14.4436 2.95745 14.4428C1.9979 14.417 1.23476 13.6294 1.23937 12.6695ZM16.7607 14.9867C16.7596 15.9661 15.966 16.7597 14.9866 16.7608H5.331C4.61996 16.7614 3.9773 16.3373 3.69827 15.6833H12.6695C14.3332 15.6815 15.6815 14.3333 15.6833 12.6696V3.69816C16.3375 3.97699 16.7617 4.61982 16.7607 5.33096L16.7607 14.9867Z" fill="white"/>
</svg>
