<svg width="18" height="12" fill="none" xmlns="http://www.w3.org/2000/svg"><path d="M17.747 1.117a1.832 1.832 0 00-1.57-.897H1.823A1.823 1.823 0 000 2.044v7.912a1.825 1.825 0 001.823 1.824h14.354A1.826 1.826 0 0018 9.956V2.044c0-.326-.087-.646-.253-.927zm-1.57.346c.125 0 .248.04.348.116l-.596 2.108a2.86 2.86 0 01-2.752 2.082H4.823A2.86 2.86 0 012.07 3.687l-.596-2.108a.577.577 0 01.348-.116h14.354zm0 9.074H1.823a.58.58 0 01-.58-.58V4.91a4.1 4.1 0 003.58 2.102h8.354a4.098 4.098 0 003.58-2.102v5.046c0 .32-.26.58-.58.58z" fill="#fff"/></svg>