<svg width="225" height="28" fill="none" xmlns="http://www.w3.org/2000/svg"><path fill-rule="evenodd" clip-rule="evenodd" d="M8 6a8 8 0 100 16h8a8 8 0 100-16H8zm1 3a5 5 0 000 10h6a5 5 0 000-10H9z" fill="url(#paint0_angular_71_335)"/><path d="M51.72 11.584c-.032.72-.048 1.392-.048 2.016 0 .624.016 1.296.048 2.016.048 1.328.448 2.408 1.2 3.24.768.816 1.864 1.224 3.288 1.224.768 0 1.416-.096 1.944-.288.528-.192.96-.44 1.296-.744.352-.304.616-.648.792-1.032.192-.4.336-.8.432-1.2a.54.54 0 01.24-.384.638.638 0 01.384-.144H62.4c.144 0 .264.056.36.168a.455.455 0 01.168.36c-.016.528-.152 1.104-.408 1.728-.256.624-.656 1.216-1.2 1.776-.528.544-1.216 1-2.064 1.368-.832.368-1.848.552-3.048.552-1.04 0-1.968-.16-2.784-.48a6.589 6.589 0 01-2.112-1.368 6.122 6.122 0 01-1.344-2.04 7.693 7.693 0 01-.528-2.616 63.386 63.386 0 010-4.272 7.634 7.634 0 01.528-2.592c.32-.8.768-1.488 1.344-2.064a6.274 6.274 0 012.112-1.344c.816-.336 1.744-.504 2.784-.504 1.2 0 2.216.184 3.048.552.848.368 1.536.832 2.064 1.392.544.544.944 1.128 1.2 1.752.256.624.392 1.2.408 1.728a.529.529 0 01-.168.384.488.488 0 01-.36.144h-1.104a.72.72 0 01-.384-.12.628.628 0 01-.24-.408c-.096-.4-.24-.792-.432-1.176-.176-.4-.44-.752-.792-1.056-.336-.304-.768-.552-1.296-.744-.528-.192-1.176-.288-1.944-.288-1.424 0-2.52.416-3.288 1.248-.752.816-1.152 1.888-1.2 3.216zM70.2 9.28c.864 0 1.632.136 2.304.408a5.027 5.027 0 011.728 1.08 4.88 4.88 0 011.128 1.704c.288.656.464 1.376.528 2.16.016.144.024.32.024.528v1.248c0 .192-.008.352-.024.48-.08.8-.256 1.528-.528 2.184a4.93 4.93 0 01-1.128 1.68 5.333 5.333 0 01-1.728 1.104c-.672.256-1.44.384-2.304.384-.864 0-1.632-.128-2.304-.384a5.333 5.333 0 01-1.728-1.104 5.23 5.23 0 01-1.152-1.68 7.162 7.162 0 01-.504-2.184 12.062 12.062 0 01-.048-.48V15.16c.016-.208.032-.384.048-.528a7.118 7.118 0 01.504-2.16 5.167 5.167 0 011.152-1.704 5.027 5.027 0 011.728-1.08c.672-.272 1.44-.408 2.304-.408zm3.504 7.488c.032-.272.048-.6.048-.984 0-.4-.016-.744-.048-1.032a5.156 5.156 0 00-.312-1.344 3.244 3.244 0 00-.672-1.08 3.094 3.094 0 00-1.056-.72c-.416-.176-.904-.264-1.464-.264-.56 0-1.048.088-1.464.264a3.094 3.094 0 00-1.056.72 3.244 3.244 0 00-.672 1.08c-.16.416-.264.864-.312 1.344a9.517 9.517 0 00-.048 1.032c0 .384.016.712.048.984.048.48.152.928.312 1.344.16.416.384.776.672 1.08.288.304.64.544 1.056.72.416.176.904.264 1.464.264.56 0 1.048-.088 1.464-.264a3.094 3.094 0 001.056-.72c.288-.304.512-.664.672-1.08.16-.416.264-.864.312-1.344zm15.603 4.584a.623.623 0 01-.192.456.623.623 0 01-.456.192h-.888a.623.623 0 01-.456-.192.623.623 0 01-.192-.456v-6.336c0-1.232-.296-2.152-.888-2.76-.592-.608-1.416-.912-2.472-.912-1.008 0-1.824.304-2.448.912-.608.608-.912 1.528-.912 2.76v6.336a.623.623 0 01-.192.456.623.623 0 01-.456.192h-.888a.623.623 0 01-.456-.192.623.623 0 01-.192-.456V10.168c0-.176.064-.328.192-.456a.623.623 0 01.456-.192h.888c.176 0 .328.064.456.192s.192.28.192.456v.744c.304-.4.752-.768 1.344-1.104.608-.352 1.4-.528 2.376-.528.752 0 1.448.128 2.088.384.64.24 1.184.592 1.632 1.056.464.448.824 1.008 1.08 1.68.256.672.384 1.424.384 2.256v6.696zm1.882-2.496c0-.64.129-1.2.385-1.68a3.68 3.68 0 011.055-1.224 5.763 5.763 0 011.56-.816 12.034 12.034 0 011.92-.48l3.385-.552v-.312c0-.816-.272-1.424-.817-1.824-.528-.416-1.192-.624-1.992-.624-.704 0-1.24.128-1.608.384a4.11 4.11 0 00-.912.912.79.79 0 01-.312.264 1.182 1.182 0 01-.456.072h-.72a.706.706 0 01-.48-.192.547.547 0 01-.168-.456c.032-.352.169-.712.409-1.08a3.942 3.942 0 011.007-.984 5.9 5.9 0 011.465-.696 5.438 5.438 0 011.776-.288c.72 0 1.383.104 1.991.312a4.3 4.3 0 011.585.912c.448.4.792.896 1.032 1.488.256.592.384 1.272.384 2.04v7.32a.623.623 0 01-.192.456.623.623 0 01-.456.192h-.888a.623.623 0 01-.456-.192.623.623 0 01-.193-.456v-.984a2.296 2.296 0 01-.671.816 4.735 4.735 0 01-1.056.576c-.385.16-.793.28-1.225.36a6.24 6.24 0 01-1.175.12c-.624 0-1.2-.088-1.728-.264a4.49 4.49 0 01-1.32-.696 3.455 3.455 0 01-.84-1.08 3.168 3.168 0 01-.288-1.344zm4.417 1.32a4.57 4.57 0 001.584-.264c.48-.176.888-.416 1.224-.72.352-.32.615-.696.791-1.128.192-.432.288-.912.288-1.44v-.6l-2.831.456c-1.009.16-1.809.416-2.4.768-.593.352-.888.808-.888 1.368 0 .176.04.352.12.528.08.176.207.344.383.504.177.16.4.288.672.384.288.096.64.144 1.056.144zm11.976-2.376c0 .304.024.592.072.864.064.256.168.48.312.672.144.192.344.344.6.456.272.096.616.144 1.032.144h1.272c.176 0 .328.064.456.192s.192.28.192.456v.768a.623.623 0 01-.192.456.623.623 0 01-.456.192h-1.512c-1.392 0-2.4-.36-3.024-1.08-.624-.72-.936-1.76-.936-3.12v-6.216h-1.776a.623.623 0 01-.456-.192.623.623 0 01-.192-.456v-.768c0-.176.064-.328.192-.456a.623.623 0 01.456-.192h1.776V5.608c0-.176.064-.328.192-.456a.623.623 0 01.456-.192h.888c.176 0 .328.064.456.192s.192.28.192.456V9.52h3.048c.176 0 .328.064.456.192s.192.28.192.456v.768a.623.623 0 01-.192.456.623.623 0 01-.456.192h-3.048V17.8zm5.506-7.632c0-.176.064-.328.192-.456a.623.623 0 01.456-.192h.888c.176 0 .328.064.456.192s.192.28.192.456v6.336c0 1.232.272 2.152.816 2.76.56.608 1.368.912 2.424.912 1.008 0 1.8-.304 2.376-.912.576-.608.864-1.528.864-2.76v-6.336c0-.176.064-.328.192-.456a.623.623 0 01.456-.192h.888c.176 0 .328.064.456.192s.192.28.192.456v11.184a.623.623 0 01-.192.456.623.623 0 01-.456.192h-.888a.623.623 0 01-.456-.192.623.623 0 01-.192-.456v-.744c-.304.4-.736.776-1.296 1.128-.56.336-1.328.504-2.304.504-.752 0-1.44-.12-2.064-.36a4.845 4.845 0 01-1.608-1.056 4.716 4.716 0 01-1.032-1.68c-.24-.672-.36-1.432-.36-2.28v-6.696zm20.824 8.376c0-.304-.088-.552-.264-.744-.16-.208-.408-.384-.744-.528a8.371 8.371 0 00-1.296-.408 48.486 48.486 0 00-1.8-.408c-1.296-.272-2.208-.72-2.736-1.344-.512-.64-.768-1.384-.768-2.232 0-.48.096-.936.288-1.368.192-.432.48-.816.864-1.152.384-.336.864-.6 1.44-.792.592-.192 1.28-.288 2.064-.288s1.464.088 2.04.264c.592.176 1.088.4 1.488.672.4.272.704.568.912.888.208.304.32.6.336.888a.522.522 0 01-.192.456.623.623 0 01-.456.192h-.792c-.096 0-.216-.016-.36-.048a.845.845 0 01-.36-.288c-.208-.272-.52-.496-.936-.672-.4-.192-.96-.288-1.68-.288-.736 0-1.336.136-1.8.408-.448.272-.672.648-.672 1.128 0 .304.064.552.192.744.128.176.336.336.624.48.288.128.664.248 1.128.36.48.112 1.072.248 1.776.408.736.16 1.352.368 1.848.624.496.24.896.52 1.2.84.304.304.52.648.648 1.032.128.368.192.76.192 1.176 0 .48-.12.944-.36 1.392-.224.448-.552.84-.984 1.176-.432.336-.96.608-1.584.816-.608.208-1.304.312-2.088.312s-1.48-.096-2.088-.288a6.725 6.725 0 01-1.56-.696c-.432-.288-.768-.592-1.008-.912-.224-.336-.344-.648-.36-.936a.547.547 0 01.168-.456.651.651 0 01.48-.192h.864c.096 0 .208.016.336.048.128.016.248.104.36.264.256.352.608.624 1.056.816.448.192 1.032.288 1.752.288.352 0 .696-.04 1.032-.12.352-.08.656-.192.912-.336a2.12 2.12 0 00.648-.504c.16-.208.24-.432.24-.672zM150.328 5.2c.784 0 1.52.104 2.208.312.704.192 1.32.496 1.848.912.528.416.944.944 1.248 1.584.32.64.48 1.4.48 2.28 0 .88-.16 1.648-.48 2.304a4.592 4.592 0 01-1.248 1.608 5.215 5.215 0 01-1.848.96 7.593 7.593 0 01-2.208.312h-4.416v5.88a.623.623 0 01-.192.456.623.623 0 01-.456.192h-.984a.623.623 0 01-.456-.192.623.623 0 01-.192-.456V5.848c0-.176.064-.328.192-.456a.623.623 0 01.456-.192h6.048zm-4.416 8.112h4.296c1.152 0 2.04-.248 2.664-.744.64-.496.96-1.256.96-2.28 0-1.024-.32-1.768-.96-2.232-.624-.464-1.512-.696-2.664-.696h-4.296v5.952zm23.176 8.04a.623.623 0 01-.192.456.623.623 0 01-.456.192h-.888a.623.623 0 01-.456-.192.623.623 0 01-.192-.456v-6.336c0-1.232-.296-2.152-.888-2.76-.592-.608-1.416-.912-2.472-.912-1.008 0-1.824.304-2.448.912-.608.608-.912 1.528-.912 2.76v6.336a.623.623 0 01-.192.456.623.623 0 01-.456.192h-.888a.623.623 0 01-.456-.192.623.623 0 01-.192-.456V5.608c0-.176.064-.328.192-.456a.623.623 0 01.456-.192h.888c.176 0 .328.064.456.192s.192.28.192.456v5.304c.304-.4.752-.768 1.344-1.104.608-.352 1.4-.528 2.376-.528.752 0 1.448.128 2.088.384.64.24 1.184.592 1.632 1.056.464.448.824 1.008 1.08 1.68.256.672.384 1.424.384 2.256v6.696zm1.882-2.496c0-.64.128-1.2.384-1.68s.608-.888 1.056-1.224a5.763 5.763 0 011.56-.816 12.034 12.034 0 011.92-.48l3.384-.552v-.312c0-.816-.272-1.424-.816-1.824-.528-.416-1.192-.624-1.992-.624-.704 0-1.24.128-1.608.384a4.11 4.11 0 00-.912.912.79.79 0 01-.312.264 1.182 1.182 0 01-.456.072h-.72a.706.706 0 01-.48-.192.547.547 0 01-.168-.456c.032-.352.168-.712.408-1.08a3.942 3.942 0 011.008-.984c.432-.288.92-.52 1.464-.696a5.438 5.438 0 011.776-.288c.72 0 1.384.104 1.992.312a4.293 4.293 0 011.584.912c.448.4.792.896 1.032 1.488.256.592.384 1.272.384 2.04v7.32a.623.623 0 01-.192.456.623.623 0 01-.456.192h-.888a.623.623 0 01-.456-.192.623.623 0 01-.192-.456v-.984a2.296 2.296 0 01-.672.816 4.735 4.735 0 01-1.056.576c-.384.16-.792.28-1.224.36a6.24 6.24 0 01-1.176.12c-.624 0-1.2-.088-1.728-.264a4.49 4.49 0 01-1.32-.696 3.455 3.455 0 01-.84-1.08 3.168 3.168 0 01-.288-1.344zm4.416 1.32a4.57 4.57 0 001.584-.264c.48-.176.888-.416 1.224-.72.352-.32.616-.696.792-1.128.192-.432.288-.912.288-1.44v-.6l-2.832.456c-1.008.16-1.808.416-2.4.768-.592.352-.888.808-.888 1.368 0 .176.04.352.12.528.08.176.208.344.384.504.176.16.4.288.672.384.288.096.64.144 1.056.144zM190.575 9.52c.176 0 .328.064.456.192s.192.28.192.456v.768a.623.623 0 01-.192.456.623.623 0 01-.456.192h-1.392c-1.84 0-2.76.92-2.76 2.76v7.008a.623.623 0 01-.192.456.623.623 0 01-.456.192h-.888a.623.623 0 01-.456-.192.623.623 0 01-.192-.456V10.168c0-.176.064-.328.192-.456a.623.623 0 01.456-.192h.888c.176 0 .328.064.456.192s.192.28.192.456v.744c.32-.48.704-.832 1.152-1.056.448-.224 1.032-.336 1.752-.336h1.248zm4.199 1.392c.144-.192.312-.384.504-.576.192-.208.408-.384.648-.528a3.46 3.46 0 01.888-.384 4.3 4.3 0 011.176-.144c.976 0 1.784.184 2.424.552a3.78 3.78 0 011.512 1.536c.208-.288.424-.56.648-.816.24-.256.512-.48.816-.672.32-.192.672-.336 1.056-.432.4-.112.864-.168 1.392-.168 1.616 0 2.792.488 3.528 1.464.736.96 1.104 2.28 1.104 3.96v6.648a.623.623 0 01-.192.456.623.623 0 01-.456.192h-.888a.623.623 0 01-.456-.192.623.623 0 01-.192-.456v-6.408c0-1.232-.24-2.136-.72-2.712-.48-.592-1.184-.888-2.112-.888-.848 0-1.536.28-2.064.84-.512.56-.768 1.424-.768 2.592v6.576a.623.623 0 01-.192.456.623.623 0 01-.456.192h-.888a.623.623 0 01-.456-.192.623.623 0 01-.192-.456v-6.408c0-1.232-.24-2.136-.72-2.712-.48-.592-1.184-.888-2.112-.888-.848 0-1.536.28-2.064.84-.512.56-.768 1.424-.768 2.592v6.576a.623.623 0 01-.192.456.623.623 0 01-.456.192h-.888a.623.623 0 01-.456-.192.623.623 0 01-.192-.456V10.168c0-.176.064-.328.192-.456a.623.623 0 01.456-.192h.888c.176 0 .328.064.456.192s.192.28.192.456v.744zm17.559 7.944c0-.64.128-1.2.384-1.68s.608-.888 1.056-1.224a5.763 5.763 0 011.56-.816 12.034 12.034 0 011.92-.48l3.384-.552v-.312c0-.816-.272-1.424-.816-1.824-.528-.416-1.192-.624-1.992-.624-.704 0-1.24.128-1.608.384a4.11 4.11 0 00-.912.912.79.79 0 01-.312.264 1.182 1.182 0 01-.456.072h-.72a.706.706 0 01-.48-.192.547.547 0 01-.168-.456c.032-.352.168-.712.408-1.08a3.942 3.942 0 011.008-.984c.432-.288.92-.52 1.464-.696a5.438 5.438 0 011.776-.288c.72 0 1.384.104 1.992.312a4.293 4.293 0 011.584.912c.448.4.792.896 1.032 1.488.256.592.384 1.272.384 2.04v7.32a.623.623 0 01-.192.456.623.623 0 01-.456.192h-.888a.623.623 0 01-.456-.192.623.623 0 01-.192-.456v-.984a2.296 2.296 0 01-.672.816 4.735 4.735 0 01-1.056.576c-.384.16-.792.28-1.224.36a6.24 6.24 0 01-1.176.12c-.624 0-1.2-.088-1.728-.264a4.49 4.49 0 01-1.32-.696 3.455 3.455 0 01-.84-1.08 3.168 3.168 0 01-.288-1.344zm4.416 1.32a4.57 4.57 0 001.584-.264c.48-.176.888-.416 1.224-.72.352-.32.616-.696.792-1.128.192-.432.288-.912.288-1.44v-.6l-2.832.456c-1.008.16-1.808.416-2.4.768-.592.352-.888.808-.888 1.368 0 .176.04.352.12.528.08.176.208.344.384.504.176.16.4.288.672.384.288.096.64.144 1.056.144z" fill="#fff"/><defs><radialGradient id="paint0_angular_71_335" cx="0" cy="0" r="1" gradientUnits="userSpaceOnUse" gradientTransform="matrix(0 -8 16.9126 0 12 14)"><stop stop-color="#1FBFFF"/><stop offset="1" stop-color="#fff"/></radialGradient></defs></svg>