<svg width="249" height="32" viewBox="0 0 249 32" fill="none" xmlns="http://www.w3.org/2000/svg">
<path fill-rule="evenodd" clip-rule="evenodd" d="M16 0C7.16344 0 0 7.16344 0 16C0 24.8366 7.16344 32 16 32H32C40.8366 32 48 24.8366 48 16C48 7.16344 40.8366 0 32 0H16ZM18 6C12.4772 6 8 10.4772 8 16C8 21.5228 12.4772 26 18 26H30C35.5228 26 40 21.5228 40 16C40 10.4772 35.5228 6 30 6H18Z" fill="url(#paint0_angular_71_551)"/>
<path d="M75.72 13.584C75.688 14.304 75.672 14.976 75.672 15.6C75.672 16.224 75.688 16.896 75.72 17.616C75.768 18.944 76.168 20.024 76.92 20.856C77.688 21.672 78.784 22.08 80.208 22.08C80.976 22.08 81.624 21.984 82.152 21.792C82.68 21.6 83.112 21.352 83.448 21.048C83.8 20.744 84.064 20.4 84.24 20.016C84.432 19.616 84.576 19.216 84.672 18.816C84.704 18.64 84.784 18.512 84.912 18.432C85.04 18.336 85.168 18.288 85.296 18.288H86.4C86.544 18.288 86.664 18.344 86.76 18.456C86.872 18.552 86.928 18.672 86.928 18.816C86.912 19.344 86.776 19.92 86.52 20.544C86.264 21.168 85.864 21.76 85.32 22.32C84.792 22.864 84.104 23.32 83.256 23.688C82.424 24.056 81.408 24.24 80.208 24.24C79.168 24.24 78.24 24.08 77.424 23.76C76.608 23.424 75.904 22.968 75.312 22.392C74.736 21.816 74.288 21.136 73.968 20.352C73.648 19.552 73.472 18.68 73.44 17.736C73.392 16.312 73.392 14.888 73.44 13.464C73.472 12.536 73.648 11.672 73.968 10.872C74.288 10.072 74.736 9.384 75.312 8.808C75.904 8.232 76.608 7.784 77.424 7.464C78.24 7.128 79.168 6.96 80.208 6.96C81.408 6.96 82.424 7.144 83.256 7.512C84.104 7.88 84.792 8.344 85.32 8.904C85.864 9.448 86.264 10.032 86.52 10.656C86.776 11.28 86.912 11.856 86.928 12.384C86.928 12.528 86.872 12.656 86.76 12.768C86.664 12.864 86.544 12.912 86.4 12.912H85.296C85.168 12.912 85.04 12.872 84.912 12.792C84.784 12.696 84.704 12.56 84.672 12.384C84.576 11.984 84.432 11.592 84.24 11.208C84.064 10.808 83.8 10.456 83.448 10.152C83.112 9.848 82.68 9.6 82.152 9.408C81.624 9.216 80.976 9.12 80.208 9.12C78.784 9.12 77.688 9.536 76.92 10.368C76.168 11.184 75.768 12.256 75.72 13.584ZM94.1998 11.28C95.0638 11.28 95.8318 11.416 96.5038 11.688C97.1758 11.944 97.7518 12.304 98.2318 12.768C98.7118 13.232 99.0878 13.8 99.3598 14.472C99.6478 15.128 99.8238 15.848 99.8878 16.632C99.9038 16.776 99.9118 16.952 99.9118 17.16C99.9118 17.352 99.9118 17.56 99.9118 17.784C99.9118 17.992 99.9118 18.2 99.9118 18.408C99.9118 18.6 99.9038 18.76 99.8878 18.888C99.8078 19.688 99.6318 20.416 99.3598 21.072C99.0878 21.728 98.7118 22.288 98.2318 22.752C97.7518 23.216 97.1758 23.584 96.5038 23.856C95.8318 24.112 95.0638 24.24 94.1998 24.24C93.3358 24.24 92.5678 24.112 91.8958 23.856C91.2238 23.584 90.6478 23.216 90.1678 22.752C89.6878 22.288 89.3038 21.728 89.0158 21.072C88.7438 20.416 88.5758 19.688 88.5118 18.888C88.4958 18.76 88.4798 18.6 88.4638 18.408C88.4638 18.2 88.4638 17.992 88.4638 17.784C88.4638 17.56 88.4638 17.352 88.4638 17.16C88.4798 16.952 88.4958 16.776 88.5118 16.632C88.5758 15.848 88.7438 15.128 89.0158 14.472C89.3038 13.8 89.6878 13.232 90.1678 12.768C90.6478 12.304 91.2238 11.944 91.8958 11.688C92.5678 11.416 93.3358 11.28 94.1998 11.28ZM97.7038 18.768C97.7358 18.496 97.7518 18.168 97.7518 17.784C97.7518 17.384 97.7358 17.04 97.7038 16.752C97.6558 16.272 97.5518 15.824 97.3918 15.408C97.2318 14.992 97.0078 14.632 96.7198 14.328C96.4318 14.024 96.0798 13.784 95.6638 13.608C95.2478 13.432 94.7598 13.344 94.1998 13.344C93.6398 13.344 93.1518 13.432 92.7358 13.608C92.3198 13.784 91.9678 14.024 91.6798 14.328C91.3918 14.632 91.1678 14.992 91.0078 15.408C90.8478 15.824 90.7438 16.272 90.6958 16.752C90.6638 17.04 90.6478 17.384 90.6478 17.784C90.6478 18.168 90.6638 18.496 90.6958 18.768C90.7438 19.248 90.8478 19.696 91.0078 20.112C91.1678 20.528 91.3918 20.888 91.6798 21.192C91.9678 21.496 92.3198 21.736 92.7358 21.912C93.1518 22.088 93.6398 22.176 94.1998 22.176C94.7598 22.176 95.2478 22.088 95.6638 21.912C96.0798 21.736 96.4318 21.496 96.7198 21.192C97.0078 20.888 97.2318 20.528 97.3918 20.112C97.5518 19.696 97.6558 19.248 97.7038 18.768ZM113.307 23.352C113.307 23.528 113.243 23.68 113.115 23.808C112.987 23.936 112.835 24 112.659 24H111.771C111.595 24 111.443 23.936 111.315 23.808C111.187 23.68 111.123 23.528 111.123 23.352V17.016C111.123 15.784 110.827 14.864 110.235 14.256C109.643 13.648 108.819 13.344 107.763 13.344C106.755 13.344 105.939 13.648 105.315 14.256C104.707 14.864 104.403 15.784 104.403 17.016V23.352C104.403 23.528 104.339 23.68 104.211 23.808C104.083 23.936 103.931 24 103.755 24H102.867C102.691 24 102.539 23.936 102.411 23.808C102.283 23.68 102.219 23.528 102.219 23.352V12.168C102.219 11.992 102.283 11.84 102.411 11.712C102.539 11.584 102.691 11.52 102.867 11.52H103.755C103.931 11.52 104.083 11.584 104.211 11.712C104.339 11.84 104.403 11.992 104.403 12.168V12.912C104.707 12.512 105.155 12.144 105.747 11.808C106.355 11.456 107.147 11.28 108.123 11.28C108.875 11.28 109.571 11.408 110.211 11.664C110.851 11.904 111.395 12.256 111.843 12.72C112.307 13.168 112.667 13.728 112.923 14.4C113.179 15.072 113.307 15.824 113.307 16.656V23.352ZM115.19 20.856C115.19 20.216 115.318 19.656 115.574 19.176C115.83 18.696 116.182 18.288 116.63 17.952C117.078 17.616 117.598 17.344 118.19 17.136C118.798 16.928 119.438 16.768 120.11 16.656L123.494 16.104V15.792C123.494 14.976 123.222 14.368 122.678 13.968C122.15 13.552 121.486 13.344 120.686 13.344C119.982 13.344 119.446 13.472 119.078 13.728C118.726 13.984 118.422 14.288 118.166 14.64C118.07 14.768 117.966 14.856 117.854 14.904C117.742 14.952 117.59 14.976 117.398 14.976H116.678C116.502 14.976 116.342 14.912 116.198 14.784C116.07 14.656 116.014 14.504 116.03 14.328C116.062 13.976 116.198 13.616 116.438 13.248C116.694 12.88 117.03 12.552 117.446 12.264C117.878 11.976 118.366 11.744 118.91 11.568C119.47 11.376 120.062 11.28 120.686 11.28C121.406 11.28 122.07 11.384 122.678 11.592C123.302 11.8 123.83 12.104 124.262 12.504C124.71 12.904 125.054 13.4 125.294 13.992C125.55 14.584 125.678 15.264 125.678 16.032V23.352C125.678 23.528 125.614 23.68 125.486 23.808C125.358 23.936 125.206 24 125.03 24H124.142C123.966 24 123.814 23.936 123.686 23.808C123.558 23.68 123.494 23.528 123.494 23.352V22.368C123.35 22.672 123.126 22.944 122.822 23.184C122.518 23.408 122.166 23.6 121.766 23.76C121.382 23.92 120.974 24.04 120.542 24.12C120.126 24.2 119.734 24.24 119.366 24.24C118.742 24.24 118.166 24.152 117.638 23.976C117.126 23.8 116.686 23.568 116.318 23.28C115.966 22.976 115.686 22.616 115.478 22.2C115.286 21.784 115.19 21.336 115.19 20.856ZM119.606 22.176C120.182 22.176 120.71 22.088 121.19 21.912C121.67 21.736 122.078 21.496 122.414 21.192C122.766 20.872 123.03 20.496 123.206 20.064C123.398 19.632 123.494 19.152 123.494 18.624V18.024L120.662 18.48C119.654 18.64 118.854 18.896 118.262 19.248C117.67 19.6 117.374 20.056 117.374 20.616C117.374 20.792 117.414 20.968 117.494 21.144C117.574 21.32 117.702 21.488 117.878 21.648C118.054 21.808 118.278 21.936 118.55 22.032C118.838 22.128 119.19 22.176 119.606 22.176ZM131.582 19.8C131.582 20.104 131.606 20.392 131.654 20.664C131.718 20.92 131.822 21.144 131.966 21.336C132.11 21.528 132.31 21.68 132.566 21.792C132.838 21.888 133.182 21.936 133.598 21.936H134.87C135.046 21.936 135.198 22 135.326 22.128C135.454 22.256 135.518 22.408 135.518 22.584V23.352C135.518 23.528 135.454 23.68 135.326 23.808C135.198 23.936 135.046 24 134.87 24H133.358C131.966 24 130.958 23.64 130.334 22.92C129.71 22.2 129.398 21.16 129.398 19.8V13.584H127.622C127.446 13.584 127.294 13.52 127.166 13.392C127.038 13.264 126.974 13.112 126.974 12.936V12.168C126.974 11.992 127.038 11.84 127.166 11.712C127.294 11.584 127.446 11.52 127.622 11.52H129.398V7.608C129.398 7.432 129.462 7.28 129.59 7.152C129.718 7.024 129.87 6.96 130.046 6.96H130.934C131.11 6.96 131.262 7.024 131.39 7.152C131.518 7.28 131.582 7.432 131.582 7.608V11.52H134.63C134.806 11.52 134.958 11.584 135.086 11.712C135.214 11.84 135.278 11.992 135.278 12.168V12.936C135.278 13.112 135.214 13.264 135.086 13.392C134.958 13.52 134.806 13.584 134.63 13.584H131.582V19.8ZM137.088 12.168C137.088 11.992 137.152 11.84 137.28 11.712C137.408 11.584 137.56 11.52 137.736 11.52H138.624C138.8 11.52 138.952 11.584 139.08 11.712C139.208 11.84 139.272 11.992 139.272 12.168V18.504C139.272 19.736 139.544 20.656 140.088 21.264C140.648 21.872 141.456 22.176 142.512 22.176C143.52 22.176 144.312 21.872 144.888 21.264C145.464 20.656 145.752 19.736 145.752 18.504V12.168C145.752 11.992 145.816 11.84 145.944 11.712C146.072 11.584 146.224 11.52 146.4 11.52H147.288C147.464 11.52 147.616 11.584 147.744 11.712C147.872 11.84 147.936 11.992 147.936 12.168V23.352C147.936 23.528 147.872 23.68 147.744 23.808C147.616 23.936 147.464 24 147.288 24H146.4C146.224 24 146.072 23.936 145.944 23.808C145.816 23.68 145.752 23.528 145.752 23.352V22.608C145.448 23.008 145.016 23.384 144.456 23.736C143.896 24.072 143.128 24.24 142.152 24.24C141.4 24.24 140.712 24.12 140.088 23.88C139.464 23.624 138.928 23.272 138.48 22.824C138.032 22.36 137.688 21.8 137.448 21.144C137.208 20.472 137.088 19.712 137.088 18.864V12.168ZM157.912 20.544C157.912 20.24 157.824 19.992 157.648 19.8C157.488 19.592 157.24 19.416 156.904 19.272C156.568 19.128 156.136 18.992 155.608 18.864C155.096 18.736 154.496 18.6 153.808 18.456C152.512 18.184 151.6 17.736 151.072 17.112C150.56 16.472 150.304 15.728 150.304 14.88C150.304 14.4 150.4 13.944 150.592 13.512C150.784 13.08 151.072 12.696 151.456 12.36C151.84 12.024 152.32 11.76 152.896 11.568C153.488 11.376 154.176 11.28 154.96 11.28C155.744 11.28 156.424 11.368 157 11.544C157.592 11.72 158.088 11.944 158.488 12.216C158.888 12.488 159.192 12.784 159.4 13.104C159.608 13.408 159.72 13.704 159.736 13.992C159.752 14.168 159.688 14.32 159.544 14.448C159.416 14.576 159.264 14.64 159.088 14.64H158.296C158.2 14.64 158.08 14.624 157.936 14.592C157.808 14.544 157.688 14.448 157.576 14.304C157.368 14.032 157.056 13.808 156.64 13.632C156.24 13.44 155.68 13.344 154.96 13.344C154.224 13.344 153.624 13.48 153.16 13.752C152.712 14.024 152.488 14.4 152.488 14.88C152.488 15.184 152.552 15.432 152.68 15.624C152.808 15.8 153.016 15.96 153.304 16.104C153.592 16.232 153.968 16.352 154.432 16.464C154.912 16.576 155.504 16.712 156.208 16.872C156.944 17.032 157.56 17.24 158.056 17.496C158.552 17.736 158.952 18.016 159.256 18.336C159.56 18.64 159.776 18.984 159.904 19.368C160.032 19.736 160.096 20.128 160.096 20.544C160.096 21.024 159.976 21.488 159.736 21.936C159.512 22.384 159.184 22.776 158.752 23.112C158.32 23.448 157.792 23.72 157.168 23.928C156.56 24.136 155.864 24.24 155.08 24.24C154.296 24.24 153.6 24.144 152.992 23.952C152.384 23.76 151.864 23.528 151.432 23.256C151 22.968 150.664 22.664 150.424 22.344C150.2 22.008 150.08 21.696 150.064 21.408C150.048 21.232 150.104 21.08 150.232 20.952C150.36 20.824 150.52 20.76 150.712 20.76H151.576C151.672 20.76 151.784 20.776 151.912 20.808C152.04 20.824 152.16 20.912 152.272 21.072C152.528 21.424 152.88 21.696 153.328 21.888C153.776 22.08 154.36 22.176 155.08 22.176C155.432 22.176 155.776 22.136 156.112 22.056C156.464 21.976 156.768 21.864 157.024 21.72C157.296 21.576 157.512 21.408 157.672 21.216C157.832 21.008 157.912 20.784 157.912 20.544ZM174.328 7.2C175.112 7.2 175.848 7.304 176.536 7.512C177.24 7.704 177.856 8.008 178.384 8.424C178.912 8.84 179.328 9.368 179.632 10.008C179.952 10.648 180.112 11.408 180.112 12.288C180.112 13.168 179.952 13.936 179.632 14.592C179.328 15.232 178.912 15.768 178.384 16.2C177.856 16.632 177.24 16.952 176.536 17.16C175.848 17.368 175.112 17.472 174.328 17.472H169.912V23.352C169.912 23.528 169.848 23.68 169.72 23.808C169.592 23.936 169.44 24 169.264 24H168.28C168.104 24 167.952 23.936 167.824 23.808C167.696 23.68 167.632 23.528 167.632 23.352V7.848C167.632 7.672 167.696 7.52 167.824 7.392C167.952 7.264 168.104 7.2 168.28 7.2H174.328ZM169.912 15.312H174.208C175.36 15.312 176.248 15.064 176.872 14.568C177.512 14.072 177.832 13.312 177.832 12.288C177.832 11.264 177.512 10.52 176.872 10.056C176.248 9.592 175.36 9.36 174.208 9.36H169.912V15.312ZM193.088 23.352C193.088 23.528 193.024 23.68 192.896 23.808C192.768 23.936 192.616 24 192.44 24H191.552C191.376 24 191.224 23.936 191.096 23.808C190.968 23.68 190.904 23.528 190.904 23.352V17.016C190.904 15.784 190.608 14.864 190.016 14.256C189.424 13.648 188.6 13.344 187.544 13.344C186.536 13.344 185.72 13.648 185.096 14.256C184.488 14.864 184.184 15.784 184.184 17.016V23.352C184.184 23.528 184.12 23.68 183.992 23.808C183.864 23.936 183.712 24 183.536 24H182.648C182.472 24 182.32 23.936 182.192 23.808C182.064 23.68 182 23.528 182 23.352V7.608C182 7.432 182.064 7.28 182.192 7.152C182.32 7.024 182.472 6.96 182.648 6.96H183.536C183.712 6.96 183.864 7.024 183.992 7.152C184.12 7.28 184.184 7.432 184.184 7.608V12.912C184.488 12.512 184.936 12.144 185.528 11.808C186.136 11.456 186.928 11.28 187.904 11.28C188.656 11.28 189.352 11.408 189.992 11.664C190.632 11.904 191.176 12.256 191.624 12.72C192.088 13.168 192.448 13.728 192.704 14.4C192.96 15.072 193.088 15.824 193.088 16.656V23.352ZM194.97 20.856C194.97 20.216 195.098 19.656 195.354 19.176C195.61 18.696 195.962 18.288 196.41 17.952C196.858 17.616 197.378 17.344 197.97 17.136C198.578 16.928 199.218 16.768 199.89 16.656L203.274 16.104V15.792C203.274 14.976 203.002 14.368 202.458 13.968C201.93 13.552 201.266 13.344 200.466 13.344C199.762 13.344 199.226 13.472 198.858 13.728C198.506 13.984 198.202 14.288 197.946 14.64C197.85 14.768 197.746 14.856 197.634 14.904C197.522 14.952 197.37 14.976 197.178 14.976H196.458C196.282 14.976 196.122 14.912 195.978 14.784C195.85 14.656 195.794 14.504 195.81 14.328C195.842 13.976 195.978 13.616 196.218 13.248C196.474 12.88 196.81 12.552 197.226 12.264C197.658 11.976 198.146 11.744 198.69 11.568C199.25 11.376 199.842 11.28 200.466 11.28C201.186 11.28 201.85 11.384 202.458 11.592C203.082 11.8 203.61 12.104 204.042 12.504C204.49 12.904 204.834 13.4 205.074 13.992C205.33 14.584 205.458 15.264 205.458 16.032V23.352C205.458 23.528 205.394 23.68 205.266 23.808C205.138 23.936 204.986 24 204.81 24H203.922C203.746 24 203.594 23.936 203.466 23.808C203.338 23.68 203.274 23.528 203.274 23.352V22.368C203.13 22.672 202.906 22.944 202.602 23.184C202.298 23.408 201.946 23.6 201.546 23.76C201.162 23.92 200.754 24.04 200.322 24.12C199.906 24.2 199.514 24.24 199.146 24.24C198.522 24.24 197.946 24.152 197.418 23.976C196.906 23.8 196.466 23.568 196.098 23.28C195.746 22.976 195.466 22.616 195.258 22.2C195.066 21.784 194.97 21.336 194.97 20.856ZM199.386 22.176C199.962 22.176 200.49 22.088 200.97 21.912C201.45 21.736 201.858 21.496 202.194 21.192C202.546 20.872 202.81 20.496 202.986 20.064C203.178 19.632 203.274 19.152 203.274 18.624V18.024L200.442 18.48C199.434 18.64 198.634 18.896 198.042 19.248C197.45 19.6 197.154 20.056 197.154 20.616C197.154 20.792 197.194 20.968 197.274 21.144C197.354 21.32 197.482 21.488 197.658 21.648C197.834 21.808 198.058 21.936 198.33 22.032C198.618 22.128 198.97 22.176 199.386 22.176ZM214.575 11.52C214.751 11.52 214.903 11.584 215.031 11.712C215.159 11.84 215.223 11.992 215.223 12.168V12.936C215.223 13.112 215.159 13.264 215.031 13.392C214.903 13.52 214.751 13.584 214.575 13.584H213.183C211.343 13.584 210.423 14.504 210.423 16.344V23.352C210.423 23.528 210.359 23.68 210.231 23.808C210.103 23.936 209.951 24 209.775 24H208.887C208.711 24 208.559 23.936 208.431 23.808C208.303 23.68 208.239 23.528 208.239 23.352V12.168C208.239 11.992 208.303 11.84 208.431 11.712C208.559 11.584 208.711 11.52 208.887 11.52H209.775C209.951 11.52 210.103 11.584 210.231 11.712C210.359 11.84 210.423 11.992 210.423 12.168V12.912C210.743 12.432 211.127 12.08 211.575 11.856C212.023 11.632 212.607 11.52 213.327 11.52H214.575ZM218.774 12.912C218.918 12.72 219.086 12.528 219.278 12.336C219.47 12.128 219.686 11.952 219.926 11.808C220.182 11.648 220.478 11.52 220.814 11.424C221.15 11.328 221.542 11.28 221.99 11.28C222.966 11.28 223.774 11.464 224.414 11.832C225.054 12.184 225.558 12.696 225.926 13.368C226.134 13.08 226.35 12.808 226.574 12.552C226.814 12.296 227.086 12.072 227.39 11.88C227.71 11.688 228.062 11.544 228.446 11.448C228.846 11.336 229.31 11.28 229.838 11.28C231.454 11.28 232.63 11.768 233.366 12.744C234.102 13.704 234.47 15.024 234.47 16.704V23.352C234.47 23.528 234.406 23.68 234.278 23.808C234.15 23.936 233.998 24 233.822 24H232.934C232.758 24 232.606 23.936 232.478 23.808C232.35 23.68 232.286 23.528 232.286 23.352V16.944C232.286 15.712 232.046 14.808 231.566 14.232C231.086 13.64 230.382 13.344 229.454 13.344C228.606 13.344 227.918 13.624 227.39 14.184C226.878 14.744 226.622 15.608 226.622 16.776V23.352C226.622 23.528 226.558 23.68 226.43 23.808C226.302 23.936 226.15 24 225.974 24H225.086C224.91 24 224.758 23.936 224.63 23.808C224.502 23.68 224.438 23.528 224.438 23.352V16.944C224.438 15.712 224.198 14.808 223.718 14.232C223.238 13.64 222.534 13.344 221.606 13.344C220.758 13.344 220.07 13.624 219.542 14.184C219.03 14.744 218.774 15.608 218.774 16.776V23.352C218.774 23.528 218.71 23.68 218.582 23.808C218.454 23.936 218.302 24 218.126 24H217.238C217.062 24 216.91 23.936 216.782 23.808C216.654 23.68 216.59 23.528 216.59 23.352V12.168C216.59 11.992 216.654 11.84 216.782 11.712C216.91 11.584 217.062 11.52 217.238 11.52H218.126C218.302 11.52 218.454 11.584 218.582 11.712C218.71 11.84 218.774 11.992 218.774 12.168V12.912ZM236.333 20.856C236.333 20.216 236.461 19.656 236.717 19.176C236.973 18.696 237.325 18.288 237.773 17.952C238.221 17.616 238.741 17.344 239.333 17.136C239.941 16.928 240.581 16.768 241.253 16.656L244.637 16.104V15.792C244.637 14.976 244.365 14.368 243.821 13.968C243.293 13.552 242.629 13.344 241.829 13.344C241.125 13.344 240.589 13.472 240.221 13.728C239.869 13.984 239.565 14.288 239.309 14.64C239.213 14.768 239.109 14.856 238.997 14.904C238.885 14.952 238.733 14.976 238.541 14.976H237.821C237.645 14.976 237.485 14.912 237.341 14.784C237.213 14.656 237.157 14.504 237.173 14.328C237.205 13.976 237.341 13.616 237.581 13.248C237.837 12.88 238.173 12.552 238.589 12.264C239.021 11.976 239.509 11.744 240.053 11.568C240.613 11.376 241.205 11.28 241.829 11.28C242.549 11.28 243.213 11.384 243.821 11.592C244.445 11.8 244.973 12.104 245.405 12.504C245.853 12.904 246.197 13.4 246.437 13.992C246.693 14.584 246.821 15.264 246.821 16.032V23.352C246.821 23.528 246.757 23.68 246.629 23.808C246.501 23.936 246.349 24 246.173 24H245.285C245.109 24 244.957 23.936 244.829 23.808C244.701 23.68 244.637 23.528 244.637 23.352V22.368C244.493 22.672 244.269 22.944 243.965 23.184C243.661 23.408 243.309 23.6 242.909 23.76C242.525 23.92 242.117 24.04 241.685 24.12C241.269 24.2 240.877 24.24 240.509 24.24C239.885 24.24 239.309 24.152 238.781 23.976C238.269 23.8 237.829 23.568 237.461 23.28C237.109 22.976 236.829 22.616 236.621 22.2C236.429 21.784 236.333 21.336 236.333 20.856ZM240.749 22.176C241.325 22.176 241.853 22.088 242.333 21.912C242.813 21.736 243.221 21.496 243.557 21.192C243.909 20.872 244.173 20.496 244.349 20.064C244.541 19.632 244.637 19.152 244.637 18.624V18.024L241.805 18.48C240.797 18.64 239.997 18.896 239.405 19.248C238.813 19.6 238.517 20.056 238.517 20.616C238.517 20.792 238.557 20.968 238.637 21.144C238.717 21.32 238.845 21.488 239.021 21.648C239.197 21.808 239.421 21.936 239.693 22.032C239.981 22.128 240.333 22.176 240.749 22.176Z" fill="white"/>
<defs>
<radialGradient id="paint0_angular_71_551" cx="0" cy="0" r="1" gradientUnits="userSpaceOnUse" gradientTransform="translate(24 14) rotate(-90) scale(19.5 51.9751)">
<stop stop-color="#1FBFFF"/>
<stop offset="1" stop-color="white"/>
</radialGradient>
</defs>
</svg>
