<svg width="20" height="20" fill="none" xmlns="http://www.w3.org/2000/svg"><path d="M19.8 18.821l-5.4-5.402c-.001 0-.001 0 0 0a8.09 8.09 0 001.91-4.859c.232-4.838-3.618-8.733-8.46-8.554A8.16 8.16 0 00.006 7.85c-.179 4.841 3.716 8.691 8.555 8.459a8.09 8.09 0 004.858-1.91l5.402 5.4a.693.693 0 00.98-.979zM1.563 9.731C1.03 7.358 1.724 5.015 3.37 3.37c1.645-1.646 3.988-2.34 6.36-1.808 2.246.503 4.524 2.78 5.027 5.026.532 2.374-.163 4.717-1.808 6.362-1.645 1.645-3.989 2.34-6.363 1.808-2.245-.504-4.522-2.78-5.025-5.027z" fill="#fff"/></svg>