<svg width="225" height="28" viewBox="0 0 225 28" fill="none" xmlns="http://www.w3.org/2000/svg">
<path fill-rule="evenodd" clip-rule="evenodd" d="M8 6C3.58172 6 0 9.58172 0 14C0 18.4183 3.58172 22 8 22H16C20.4183 22 24 18.4183 24 14C24 9.58172 20.4183 6 16 6H8ZM9 9C6.23858 9 4 11.2386 4 14C4 16.7614 6.23858 19 9 19H15C17.7614 19 20 16.7614 20 14C20 11.2386 17.7614 9 15 9H9Z" fill="url(#paint0_angular_71_335)"/>
<path d="M51.72 11.584C51.688 12.304 51.672 12.976 51.672 13.6C51.672 14.224 51.688 14.896 51.72 15.616C51.768 16.944 52.168 18.024 52.92 18.856C53.688 19.672 54.784 20.08 56.208 20.08C56.976 20.08 57.624 19.984 58.152 19.792C58.68 19.6 59.112 19.352 59.448 19.048C59.8 18.744 60.064 18.4 60.24 18.016C60.432 17.616 60.576 17.216 60.672 16.816C60.704 16.64 60.784 16.512 60.912 16.432C61.04 16.336 61.168 16.288 61.296 16.288H62.4C62.544 16.288 62.664 16.344 62.76 16.456C62.872 16.552 62.928 16.672 62.928 16.816C62.912 17.344 62.776 17.92 62.52 18.544C62.264 19.168 61.864 19.76 61.32 20.32C60.792 20.864 60.104 21.32 59.256 21.688C58.424 22.056 57.408 22.24 56.208 22.24C55.168 22.24 54.24 22.08 53.424 21.76C52.608 21.424 51.904 20.968 51.312 20.392C50.736 19.816 50.288 19.136 49.968 18.352C49.648 17.552 49.472 16.68 49.44 15.736C49.392 14.312 49.392 12.888 49.44 11.464C49.472 10.536 49.648 9.672 49.968 8.872C50.288 8.072 50.736 7.384 51.312 6.808C51.904 6.232 52.608 5.784 53.424 5.464C54.24 5.128 55.168 4.96 56.208 4.96C57.408 4.96 58.424 5.144 59.256 5.512C60.104 5.88 60.792 6.344 61.32 6.904C61.864 7.448 62.264 8.032 62.52 8.656C62.776 9.28 62.912 9.856 62.928 10.384C62.928 10.528 62.872 10.656 62.76 10.768C62.664 10.864 62.544 10.912 62.4 10.912H61.296C61.168 10.912 61.04 10.872 60.912 10.792C60.784 10.696 60.704 10.56 60.672 10.384C60.576 9.984 60.432 9.592 60.24 9.208C60.064 8.808 59.8 8.456 59.448 8.152C59.112 7.848 58.68 7.6 58.152 7.408C57.624 7.216 56.976 7.12 56.208 7.12C54.784 7.12 53.688 7.536 52.92 8.368C52.168 9.184 51.768 10.256 51.72 11.584ZM70.1998 9.28C71.0638 9.28 71.8318 9.416 72.5038 9.688C73.1758 9.944 73.7518 10.304 74.2318 10.768C74.7118 11.232 75.0878 11.8 75.3598 12.472C75.6478 13.128 75.8238 13.848 75.8878 14.632C75.9038 14.776 75.9118 14.952 75.9118 15.16C75.9118 15.352 75.9118 15.56 75.9118 15.784C75.9118 15.992 75.9118 16.2 75.9118 16.408C75.9118 16.6 75.9038 16.76 75.8878 16.888C75.8078 17.688 75.6318 18.416 75.3598 19.072C75.0878 19.728 74.7118 20.288 74.2318 20.752C73.7518 21.216 73.1758 21.584 72.5038 21.856C71.8318 22.112 71.0638 22.24 70.1998 22.24C69.3358 22.24 68.5678 22.112 67.8958 21.856C67.2238 21.584 66.6478 21.216 66.1678 20.752C65.6878 20.288 65.3038 19.728 65.0158 19.072C64.7438 18.416 64.5758 17.688 64.5118 16.888C64.4958 16.76 64.4798 16.6 64.4638 16.408C64.4638 16.2 64.4638 15.992 64.4638 15.784C64.4638 15.56 64.4638 15.352 64.4638 15.16C64.4798 14.952 64.4958 14.776 64.5118 14.632C64.5758 13.848 64.7438 13.128 65.0158 12.472C65.3038 11.8 65.6878 11.232 66.1678 10.768C66.6478 10.304 67.2238 9.944 67.8958 9.688C68.5678 9.416 69.3358 9.28 70.1998 9.28ZM73.7038 16.768C73.7358 16.496 73.7518 16.168 73.7518 15.784C73.7518 15.384 73.7358 15.04 73.7038 14.752C73.6558 14.272 73.5518 13.824 73.3918 13.408C73.2318 12.992 73.0078 12.632 72.7198 12.328C72.4318 12.024 72.0798 11.784 71.6638 11.608C71.2478 11.432 70.7598 11.344 70.1998 11.344C69.6398 11.344 69.1518 11.432 68.7358 11.608C68.3198 11.784 67.9678 12.024 67.6798 12.328C67.3918 12.632 67.1678 12.992 67.0078 13.408C66.8478 13.824 66.7438 14.272 66.6958 14.752C66.6638 15.04 66.6478 15.384 66.6478 15.784C66.6478 16.168 66.6638 16.496 66.6958 16.768C66.7438 17.248 66.8478 17.696 67.0078 18.112C67.1678 18.528 67.3918 18.888 67.6798 19.192C67.9678 19.496 68.3198 19.736 68.7358 19.912C69.1518 20.088 69.6398 20.176 70.1998 20.176C70.7598 20.176 71.2478 20.088 71.6638 19.912C72.0798 19.736 72.4318 19.496 72.7198 19.192C73.0078 18.888 73.2318 18.528 73.3918 18.112C73.5518 17.696 73.6558 17.248 73.7038 16.768ZM89.3074 21.352C89.3074 21.528 89.2434 21.68 89.1154 21.808C88.9874 21.936 88.8354 22 88.6594 22H87.7714C87.5954 22 87.4434 21.936 87.3154 21.808C87.1874 21.68 87.1234 21.528 87.1234 21.352V15.016C87.1234 13.784 86.8274 12.864 86.2354 12.256C85.6434 11.648 84.8194 11.344 83.7634 11.344C82.7554 11.344 81.9394 11.648 81.3154 12.256C80.7074 12.864 80.4034 13.784 80.4034 15.016V21.352C80.4034 21.528 80.3394 21.68 80.2114 21.808C80.0834 21.936 79.9314 22 79.7554 22H78.8674C78.6914 22 78.5394 21.936 78.4114 21.808C78.2834 21.68 78.2194 21.528 78.2194 21.352V10.168C78.2194 9.992 78.2834 9.84 78.4114 9.712C78.5394 9.584 78.6914 9.52 78.8674 9.52H79.7554C79.9314 9.52 80.0834 9.584 80.2114 9.712C80.3394 9.84 80.4034 9.992 80.4034 10.168V10.912C80.7074 10.512 81.1554 10.144 81.7474 9.808C82.3554 9.456 83.1474 9.28 84.1234 9.28C84.8754 9.28 85.5714 9.408 86.2114 9.664C86.8514 9.904 87.3954 10.256 87.8434 10.72C88.3074 11.168 88.6674 11.728 88.9234 12.4C89.1794 13.072 89.3074 13.824 89.3074 14.656V21.352ZM91.1895 18.856C91.1895 18.216 91.3175 17.656 91.5735 17.176C91.8295 16.696 92.1815 16.288 92.6295 15.952C93.0775 15.616 93.5975 15.344 94.1895 15.136C94.7975 14.928 95.4375 14.768 96.1095 14.656L99.4935 14.104V13.792C99.4935 12.976 99.2215 12.368 98.6775 11.968C98.1495 11.552 97.4855 11.344 96.6855 11.344C95.9815 11.344 95.4455 11.472 95.0775 11.728C94.7255 11.984 94.4215 12.288 94.1655 12.64C94.0695 12.768 93.9655 12.856 93.8535 12.904C93.7415 12.952 93.5895 12.976 93.3975 12.976H92.6775C92.5015 12.976 92.3415 12.912 92.1975 12.784C92.0695 12.656 92.0135 12.504 92.0295 12.328C92.0615 11.976 92.1975 11.616 92.4375 11.248C92.6935 10.88 93.0295 10.552 93.4455 10.264C93.8775 9.976 94.3655 9.744 94.9095 9.568C95.4695 9.376 96.0615 9.28 96.6855 9.28C97.4055 9.28 98.0695 9.384 98.6775 9.592C99.3015 9.8 99.8295 10.104 100.262 10.504C100.71 10.904 101.054 11.4 101.294 11.992C101.55 12.584 101.678 13.264 101.678 14.032V21.352C101.678 21.528 101.614 21.68 101.486 21.808C101.358 21.936 101.206 22 101.03 22H100.142C99.9655 22 99.8135 21.936 99.6855 21.808C99.5575 21.68 99.4935 21.528 99.4935 21.352V20.368C99.3495 20.672 99.1255 20.944 98.8215 21.184C98.5175 21.408 98.1655 21.6 97.7655 21.76C97.3815 21.92 96.9735 22.04 96.5415 22.12C96.1255 22.2 95.7335 22.24 95.3655 22.24C94.7415 22.24 94.1655 22.152 93.6375 21.976C93.1255 21.8 92.6855 21.568 92.3175 21.28C91.9655 20.976 91.6855 20.616 91.4775 20.2C91.2855 19.784 91.1895 19.336 91.1895 18.856ZM95.6055 20.176C96.1815 20.176 96.7095 20.088 97.1895 19.912C97.6695 19.736 98.0775 19.496 98.4135 19.192C98.7655 18.872 99.0295 18.496 99.2055 18.064C99.3975 17.632 99.4935 17.152 99.4935 16.624V16.024L96.6615 16.48C95.6535 16.64 94.8535 16.896 94.2615 17.248C93.6695 17.6 93.3735 18.056 93.3735 18.616C93.3735 18.792 93.4135 18.968 93.4935 19.144C93.5735 19.32 93.7015 19.488 93.8775 19.648C94.0535 19.808 94.2775 19.936 94.5495 20.032C94.8375 20.128 95.1895 20.176 95.6055 20.176ZM107.582 17.8C107.582 18.104 107.606 18.392 107.654 18.664C107.718 18.92 107.822 19.144 107.966 19.336C108.11 19.528 108.31 19.68 108.566 19.792C108.838 19.888 109.182 19.936 109.598 19.936H110.87C111.046 19.936 111.198 20 111.326 20.128C111.454 20.256 111.518 20.408 111.518 20.584V21.352C111.518 21.528 111.454 21.68 111.326 21.808C111.198 21.936 111.046 22 110.87 22H109.358C107.966 22 106.958 21.64 106.334 20.92C105.71 20.2 105.398 19.16 105.398 17.8V11.584H103.622C103.446 11.584 103.294 11.52 103.166 11.392C103.038 11.264 102.974 11.112 102.974 10.936V10.168C102.974 9.992 103.038 9.84 103.166 9.712C103.294 9.584 103.446 9.52 103.622 9.52H105.398V5.608C105.398 5.432 105.462 5.28 105.59 5.152C105.718 5.024 105.87 4.96 106.046 4.96H106.934C107.11 4.96 107.262 5.024 107.39 5.152C107.518 5.28 107.582 5.432 107.582 5.608V9.52H110.63C110.806 9.52 110.958 9.584 111.086 9.712C111.214 9.84 111.278 9.992 111.278 10.168V10.936C111.278 11.112 111.214 11.264 111.086 11.392C110.958 11.52 110.806 11.584 110.63 11.584H107.582V17.8ZM113.088 10.168C113.088 9.992 113.152 9.84 113.28 9.712C113.408 9.584 113.56 9.52 113.736 9.52H114.624C114.8 9.52 114.952 9.584 115.08 9.712C115.208 9.84 115.272 9.992 115.272 10.168V16.504C115.272 17.736 115.544 18.656 116.088 19.264C116.648 19.872 117.456 20.176 118.512 20.176C119.52 20.176 120.312 19.872 120.888 19.264C121.464 18.656 121.752 17.736 121.752 16.504V10.168C121.752 9.992 121.816 9.84 121.944 9.712C122.072 9.584 122.224 9.52 122.4 9.52H123.288C123.464 9.52 123.616 9.584 123.744 9.712C123.872 9.84 123.936 9.992 123.936 10.168V21.352C123.936 21.528 123.872 21.68 123.744 21.808C123.616 21.936 123.464 22 123.288 22H122.4C122.224 22 122.072 21.936 121.944 21.808C121.816 21.68 121.752 21.528 121.752 21.352V20.608C121.448 21.008 121.016 21.384 120.456 21.736C119.896 22.072 119.128 22.24 118.152 22.24C117.4 22.24 116.712 22.12 116.088 21.88C115.464 21.624 114.928 21.272 114.48 20.824C114.032 20.36 113.688 19.8 113.448 19.144C113.208 18.472 113.088 17.712 113.088 16.864V10.168ZM133.912 18.544C133.912 18.24 133.824 17.992 133.648 17.8C133.488 17.592 133.24 17.416 132.904 17.272C132.568 17.128 132.136 16.992 131.608 16.864C131.096 16.736 130.496 16.6 129.808 16.456C128.512 16.184 127.6 15.736 127.072 15.112C126.56 14.472 126.304 13.728 126.304 12.88C126.304 12.4 126.4 11.944 126.592 11.512C126.784 11.08 127.072 10.696 127.456 10.36C127.84 10.024 128.32 9.76 128.896 9.568C129.488 9.376 130.176 9.28 130.96 9.28C131.744 9.28 132.424 9.368 133 9.544C133.592 9.72 134.088 9.944 134.488 10.216C134.888 10.488 135.192 10.784 135.4 11.104C135.608 11.408 135.72 11.704 135.736 11.992C135.752 12.168 135.688 12.32 135.544 12.448C135.416 12.576 135.264 12.64 135.088 12.64H134.296C134.2 12.64 134.08 12.624 133.936 12.592C133.808 12.544 133.688 12.448 133.576 12.304C133.368 12.032 133.056 11.808 132.64 11.632C132.24 11.44 131.68 11.344 130.96 11.344C130.224 11.344 129.624 11.48 129.16 11.752C128.712 12.024 128.488 12.4 128.488 12.88C128.488 13.184 128.552 13.432 128.68 13.624C128.808 13.8 129.016 13.96 129.304 14.104C129.592 14.232 129.968 14.352 130.432 14.464C130.912 14.576 131.504 14.712 132.208 14.872C132.944 15.032 133.56 15.24 134.056 15.496C134.552 15.736 134.952 16.016 135.256 16.336C135.56 16.64 135.776 16.984 135.904 17.368C136.032 17.736 136.096 18.128 136.096 18.544C136.096 19.024 135.976 19.488 135.736 19.936C135.512 20.384 135.184 20.776 134.752 21.112C134.32 21.448 133.792 21.72 133.168 21.928C132.56 22.136 131.864 22.24 131.08 22.24C130.296 22.24 129.6 22.144 128.992 21.952C128.384 21.76 127.864 21.528 127.432 21.256C127 20.968 126.664 20.664 126.424 20.344C126.2 20.008 126.08 19.696 126.064 19.408C126.048 19.232 126.104 19.08 126.232 18.952C126.36 18.824 126.52 18.76 126.712 18.76H127.576C127.672 18.76 127.784 18.776 127.912 18.808C128.04 18.824 128.16 18.912 128.272 19.072C128.528 19.424 128.88 19.696 129.328 19.888C129.776 20.08 130.36 20.176 131.08 20.176C131.432 20.176 131.776 20.136 132.112 20.056C132.464 19.976 132.768 19.864 133.024 19.72C133.296 19.576 133.512 19.408 133.672 19.216C133.832 19.008 133.912 18.784 133.912 18.544ZM150.328 5.2C151.112 5.2 151.848 5.304 152.536 5.512C153.24 5.704 153.856 6.008 154.384 6.424C154.912 6.84 155.328 7.368 155.632 8.008C155.952 8.648 156.112 9.408 156.112 10.288C156.112 11.168 155.952 11.936 155.632 12.592C155.328 13.232 154.912 13.768 154.384 14.2C153.856 14.632 153.24 14.952 152.536 15.16C151.848 15.368 151.112 15.472 150.328 15.472H145.912V21.352C145.912 21.528 145.848 21.68 145.72 21.808C145.592 21.936 145.44 22 145.264 22H144.28C144.104 22 143.952 21.936 143.824 21.808C143.696 21.68 143.632 21.528 143.632 21.352V5.848C143.632 5.672 143.696 5.52 143.824 5.392C143.952 5.264 144.104 5.2 144.28 5.2H150.328ZM145.912 13.312H150.208C151.36 13.312 152.248 13.064 152.872 12.568C153.512 12.072 153.832 11.312 153.832 10.288C153.832 9.264 153.512 8.52 152.872 8.056C152.248 7.592 151.36 7.36 150.208 7.36H145.912V13.312ZM169.088 21.352C169.088 21.528 169.024 21.68 168.896 21.808C168.768 21.936 168.616 22 168.44 22H167.552C167.376 22 167.224 21.936 167.096 21.808C166.968 21.68 166.904 21.528 166.904 21.352V15.016C166.904 13.784 166.608 12.864 166.016 12.256C165.424 11.648 164.6 11.344 163.544 11.344C162.536 11.344 161.72 11.648 161.096 12.256C160.488 12.864 160.184 13.784 160.184 15.016V21.352C160.184 21.528 160.12 21.68 159.992 21.808C159.864 21.936 159.712 22 159.536 22H158.648C158.472 22 158.32 21.936 158.192 21.808C158.064 21.68 158 21.528 158 21.352V5.608C158 5.432 158.064 5.28 158.192 5.152C158.32 5.024 158.472 4.96 158.648 4.96H159.536C159.712 4.96 159.864 5.024 159.992 5.152C160.12 5.28 160.184 5.432 160.184 5.608V10.912C160.488 10.512 160.936 10.144 161.528 9.808C162.136 9.456 162.928 9.28 163.904 9.28C164.656 9.28 165.352 9.408 165.992 9.664C166.632 9.904 167.176 10.256 167.624 10.72C168.088 11.168 168.448 11.728 168.704 12.4C168.96 13.072 169.088 13.824 169.088 14.656V21.352ZM170.97 18.856C170.97 18.216 171.098 17.656 171.354 17.176C171.61 16.696 171.962 16.288 172.41 15.952C172.858 15.616 173.378 15.344 173.97 15.136C174.578 14.928 175.218 14.768 175.89 14.656L179.274 14.104V13.792C179.274 12.976 179.002 12.368 178.458 11.968C177.93 11.552 177.266 11.344 176.466 11.344C175.762 11.344 175.226 11.472 174.858 11.728C174.506 11.984 174.202 12.288 173.946 12.64C173.85 12.768 173.746 12.856 173.634 12.904C173.522 12.952 173.37 12.976 173.178 12.976H172.458C172.282 12.976 172.122 12.912 171.978 12.784C171.85 12.656 171.794 12.504 171.81 12.328C171.842 11.976 171.978 11.616 172.218 11.248C172.474 10.88 172.81 10.552 173.226 10.264C173.658 9.976 174.146 9.744 174.69 9.568C175.25 9.376 175.842 9.28 176.466 9.28C177.186 9.28 177.85 9.384 178.458 9.592C179.082 9.8 179.61 10.104 180.042 10.504C180.49 10.904 180.834 11.4 181.074 11.992C181.33 12.584 181.458 13.264 181.458 14.032V21.352C181.458 21.528 181.394 21.68 181.266 21.808C181.138 21.936 180.986 22 180.81 22H179.922C179.746 22 179.594 21.936 179.466 21.808C179.338 21.68 179.274 21.528 179.274 21.352V20.368C179.13 20.672 178.906 20.944 178.602 21.184C178.298 21.408 177.946 21.6 177.546 21.76C177.162 21.92 176.754 22.04 176.322 22.12C175.906 22.2 175.514 22.24 175.146 22.24C174.522 22.24 173.946 22.152 173.418 21.976C172.906 21.8 172.466 21.568 172.098 21.28C171.746 20.976 171.466 20.616 171.258 20.2C171.066 19.784 170.97 19.336 170.97 18.856ZM175.386 20.176C175.962 20.176 176.49 20.088 176.97 19.912C177.45 19.736 177.858 19.496 178.194 19.192C178.546 18.872 178.81 18.496 178.986 18.064C179.178 17.632 179.274 17.152 179.274 16.624V16.024L176.442 16.48C175.434 16.64 174.634 16.896 174.042 17.248C173.45 17.6 173.154 18.056 173.154 18.616C173.154 18.792 173.194 18.968 173.274 19.144C173.354 19.32 173.482 19.488 173.658 19.648C173.834 19.808 174.058 19.936 174.33 20.032C174.618 20.128 174.97 20.176 175.386 20.176ZM190.575 9.52C190.751 9.52 190.903 9.584 191.031 9.712C191.159 9.84 191.223 9.992 191.223 10.168V10.936C191.223 11.112 191.159 11.264 191.031 11.392C190.903 11.52 190.751 11.584 190.575 11.584H189.183C187.343 11.584 186.423 12.504 186.423 14.344V21.352C186.423 21.528 186.359 21.68 186.231 21.808C186.103 21.936 185.951 22 185.775 22H184.887C184.711 22 184.559 21.936 184.431 21.808C184.303 21.68 184.239 21.528 184.239 21.352V10.168C184.239 9.992 184.303 9.84 184.431 9.712C184.559 9.584 184.711 9.52 184.887 9.52H185.775C185.951 9.52 186.103 9.584 186.231 9.712C186.359 9.84 186.423 9.992 186.423 10.168V10.912C186.743 10.432 187.127 10.08 187.575 9.856C188.023 9.632 188.607 9.52 189.327 9.52H190.575ZM194.774 10.912C194.918 10.72 195.086 10.528 195.278 10.336C195.47 10.128 195.686 9.952 195.926 9.808C196.182 9.648 196.478 9.52 196.814 9.424C197.15 9.328 197.542 9.28 197.99 9.28C198.966 9.28 199.774 9.464 200.414 9.832C201.054 10.184 201.558 10.696 201.926 11.368C202.134 11.08 202.35 10.808 202.574 10.552C202.814 10.296 203.086 10.072 203.39 9.88C203.71 9.688 204.062 9.544 204.446 9.448C204.846 9.336 205.31 9.28 205.838 9.28C207.454 9.28 208.63 9.768 209.366 10.744C210.102 11.704 210.47 13.024 210.47 14.704V21.352C210.47 21.528 210.406 21.68 210.278 21.808C210.15 21.936 209.998 22 209.822 22H208.934C208.758 22 208.606 21.936 208.478 21.808C208.35 21.68 208.286 21.528 208.286 21.352V14.944C208.286 13.712 208.046 12.808 207.566 12.232C207.086 11.64 206.382 11.344 205.454 11.344C204.606 11.344 203.918 11.624 203.39 12.184C202.878 12.744 202.622 13.608 202.622 14.776V21.352C202.622 21.528 202.558 21.68 202.43 21.808C202.302 21.936 202.15 22 201.974 22H201.086C200.91 22 200.758 21.936 200.63 21.808C200.502 21.68 200.438 21.528 200.438 21.352V14.944C200.438 13.712 200.198 12.808 199.718 12.232C199.238 11.64 198.534 11.344 197.606 11.344C196.758 11.344 196.07 11.624 195.542 12.184C195.03 12.744 194.774 13.608 194.774 14.776V21.352C194.774 21.528 194.71 21.68 194.582 21.808C194.454 21.936 194.302 22 194.126 22H193.238C193.062 22 192.91 21.936 192.782 21.808C192.654 21.68 192.59 21.528 192.59 21.352V10.168C192.59 9.992 192.654 9.84 192.782 9.712C192.91 9.584 193.062 9.52 193.238 9.52H194.126C194.302 9.52 194.454 9.584 194.582 9.712C194.71 9.84 194.774 9.992 194.774 10.168V10.912ZM212.333 18.856C212.333 18.216 212.461 17.656 212.717 17.176C212.973 16.696 213.325 16.288 213.773 15.952C214.221 15.616 214.741 15.344 215.333 15.136C215.941 14.928 216.581 14.768 217.253 14.656L220.637 14.104V13.792C220.637 12.976 220.365 12.368 219.821 11.968C219.293 11.552 218.629 11.344 217.829 11.344C217.125 11.344 216.589 11.472 216.221 11.728C215.869 11.984 215.565 12.288 215.309 12.64C215.213 12.768 215.109 12.856 214.997 12.904C214.885 12.952 214.733 12.976 214.541 12.976H213.821C213.645 12.976 213.485 12.912 213.341 12.784C213.213 12.656 213.157 12.504 213.173 12.328C213.205 11.976 213.341 11.616 213.581 11.248C213.837 10.88 214.173 10.552 214.589 10.264C215.021 9.976 215.509 9.744 216.053 9.568C216.613 9.376 217.205 9.28 217.829 9.28C218.549 9.28 219.213 9.384 219.821 9.592C220.445 9.8 220.973 10.104 221.405 10.504C221.853 10.904 222.197 11.4 222.437 11.992C222.693 12.584 222.821 13.264 222.821 14.032V21.352C222.821 21.528 222.757 21.68 222.629 21.808C222.501 21.936 222.349 22 222.173 22H221.285C221.109 22 220.957 21.936 220.829 21.808C220.701 21.68 220.637 21.528 220.637 21.352V20.368C220.493 20.672 220.269 20.944 219.965 21.184C219.661 21.408 219.309 21.6 218.909 21.76C218.525 21.92 218.117 22.04 217.685 22.12C217.269 22.2 216.877 22.24 216.509 22.24C215.885 22.24 215.309 22.152 214.781 21.976C214.269 21.8 213.829 21.568 213.461 21.28C213.109 20.976 212.829 20.616 212.621 20.2C212.429 19.784 212.333 19.336 212.333 18.856ZM216.749 20.176C217.325 20.176 217.853 20.088 218.333 19.912C218.813 19.736 219.221 19.496 219.557 19.192C219.909 18.872 220.173 18.496 220.349 18.064C220.541 17.632 220.637 17.152 220.637 16.624V16.024L217.805 16.48C216.797 16.64 215.997 16.896 215.405 17.248C214.813 17.6 214.517 18.056 214.517 18.616C214.517 18.792 214.557 18.968 214.637 19.144C214.717 19.32 214.845 19.488 215.021 19.648C215.197 19.808 215.421 19.936 215.693 20.032C215.981 20.128 216.333 20.176 216.749 20.176Z" fill="white"/>
<defs>
<radialGradient id="paint0_angular_71_335" cx="0" cy="0" r="1" gradientUnits="userSpaceOnUse" gradientTransform="translate(12 14) rotate(-90) scale(8 16.9126)">
<stop stop-color="#1FBFFF"/>
<stop offset="1" stop-color="white"/>
</radialGradient>
</defs>
</svg>
