<svg width="1902" height="1061" fill="none" xmlns="http://www.w3.org/2000/svg"><path d="M-18 1034.8c203.85-8.31 382.965-115.412 540.645-222.254 39.6-26.834 78.45-54.404 117-82.183 28.605-20.655 59.565-44.849 95.715-51.164 54.465-9.51 84.435 34.784 107.55 74.023 29.73 50.444 55.005 104.758 100.935 143.517 66.195 55.889 149.685 55.499 225.455 15.195 107.41-57.284 183.7-154.887 284.2-218.26 136.4-85.918 302.34-35.849 448.5-39.359v7.934c-145.2 2.1-310.99-50.398-446.9 35.355-103.22 65.158-178.27 168.251-287.08 229.494-77.01 43.304-159.71 41.999-225-17.999-43.71-40.124-65.85-94.498-92.505-145.737-20.07-38.609-46.02-82.498-98.85-72.733-35.685 6.585-66.675 30.809-95.04 51.209-39.255 28.259-78.795 56.383-119.055 83.833C376.245 935.663 191.43 1051.25-18 1061v-26.2z" fill="url(#paint0_linear_71_300)"/><path d="M-18 991.687c196.065-5.445 367.005-99.328 519.84-201.671 38.79-25.979 76.755-52.828 114.3-79.948 28.755-20.789 60.42-43.919 97.23-48.329 55.785-6.674 91.935 37.5 120.21 76.139 36 49.288 67.155 104.457 118.5 140.396 70.03 48.989 155.88 43.784 230.31 5.28 105.72-54.719 183.1-146.996 282.69-206.995 131.69-79.303 296.84-32.564 436.9-37.139v9c-146.16 4.2-311.91-44.534-448.12 41.339-98.88 62.428-175.64 156.641-282.09 211.72-75 38.744-159 40.274-225.915-12.795-47.655-37.769-75.18-92.008-107.25-141.867-25.5-39.644-58.32-84.118-114.12-74.713-36.555 6.15-67.575 30.314-96.48 51.179-37.98 27.434-76.35 54.599-115.5 80.998C357.255 908.814 181.98 1009.99-18 1017.17v-25.483z" fill="url(#paint1_linear_71_300)"/><path d="M-18 948.563c186.18-2.01 347.685-80.218 494.67-176.516 37.71-24.72 74.52-50.444 110.805-76.588 30.12-21.705 62.61-44.474 101.025-48.704 60.255-6.645 104.16 37.499 139.395 77.173C870.42 771.762 908.46 826.601 965.25 859.51c72.15 41.789 159.17 32.894 232.05-3.165 103.08-50.999 180.12-136.497 275.61-195.206 128.19-78.778 291.96-33.614 429-38.369v9.81c-139.04 4.77-303.75-41.189-434.16 37.964-97.71 59.369-175.09 148.617-279.75 201.58-73.74 37.32-160.08 43.994-231-1.919-53.58-34.695-87.555-89.728-126.285-138.387-31.14-39.134-70.5-83.278-128.1-76.633-37.5 4.334-69.435 27.314-98.73 48.463-37.02 26.73-74.475 53.114-112.815 78.569C340.8 881.979 173.88 969.322-18 973.342v-24.779z" fill="url(#paint2_linear_71_300)"/><path d="M-18 905.454c176.22 1.5 328.5-60.389 469.89-150.477 36.66-23.354 72.33-47.924 107.385-73.018 31.77-22.725 65.43-44.999 105.78-49.154 65.535-6.705 117.585 37.679 160.41 77.998C874.875 757.302 920.55 811.781 983.4 841.3c74.31 34.949 162.38 21.48 234.17-13.184 100.26-48.404 175.93-128.382 267.55-186.131 123.12-77.638 284.47-33.269 416.88-37.364v10.32c-135.21 4.499-298.02-40.185-424.14 38.159-93.75 58.228-170.31 141.221-272.15 190.93-72.34 35.324-159.85 46.139-232.96 7.5-59.4-31.499-100.74-86.143-146.265-133.362-38.535-39.959-85.995-84.208-148.5-77.533-39.27 4.185-72.24 26.744-103.065 48.899-35.73 25.679-72 50.894-109.275 74.998C321.15 857.98 163.77 929.063-18 929.513v-24.059z" fill="url(#paint3_linear_71_300)"/><path d="M-18 862.33c166.395 4.845 309.675-40.499 445.98-124.257 66.57-40.934 134.265-111.328 215.19-118.963 71.445-6.749 131.82 38.085 182.55 78.854 56.46 45.374 110.28 99.492 179.52 125.517 76.5 28.754 165.22 9.899 236.44-24.3 97.35-46.769 170.86-121.947 258.8-179.201 116.86-76.048 275.08-31.874 401.52-34.724v10.5c-129.81 3.585-289.8-40.634-410.18 36.329-89.92 57.584-164.66 135.297-263.61 182.861-71.44 34.364-159.88 50.204-235.195 18.179-65.775-27.959-115.11-82.273-167.745-128.217-46.425-40.499-102.285-85.093-170.46-78.358-79.92 7.875-148.59 79.633-214.02 120.702C301.8 834.475 153.66 888.774-18 885.684V862.33z" fill="url(#paint4_linear_71_300)"/><path d="M-18 819.221c158.4 7.74 294.465-21.855 426.93-100.708 69.24-41.204 135.57-109.527 220.2-114.027 75.45-3.96 142.17 40.499 199.11 80.503 61.995 43.544 122.46 94.993 195.68 118.992 78.84 25.859 167.61 2.175 239.88-31.994 95.2-44.999 167.63-115.392 251.47-173.846 109.78-76.498 266.16-31.664 386.73-32.894v10.589c-123.26 2.115-279.86-42.104-393.42 33-86.25 57.148-158.51 130.272-254.48 176.456-71.17 34.259-159.94 55.888-237.51 29.819-72.445-24.36-130.105-78.343-189.925-123.282-54.525-40.949-118.83-86.098-193.245-79.363-81.825 7.394-148.755 76.633-216.36 117.432-133.965 80.848-273.255 118.227-435 111.957l-.06-22.634z" fill="url(#paint5_linear_71_300)"/><path d="M-18 776.097c75 4.995 150.75 8.4 224.34-5.565 65.16-12.36 125.505-38.549 181.755-70.648C459.93 658.95 524.7 592.771 611.7 588.886c81.825-3.615 156.39 41.849 220.875 82.273 68.745 43.094 137.055 94.393 216.765 115.243 81.9 21.419 169.24-8.82 242.37-44.024 43.34-20.865 84.28-46.124 123.15-73.649 41.78-29.579 78.12-65.413 119.04-95.217 102.18-74.444 255-29.175 368.1-28.665v10.38c-117 .375-271.5-44.684-377.62 30.839-82.06 58.469-153.2 126.702-246.93 171.416-72.66 34.664-160.79 61.499-241.16 37.934-76.5-22.379-140.79-73.798-206.115-117.087-60.675-40.214-131.31-85.123-209.895-81.343-85.785 4.17-151.335 71.428-221.85 112.497C268.17 785.502 135.84 806.981-18 797.981v-21.884z" fill="url(#paint6_linear_71_300)"/><path d="M-18 732.988c71.76 5.73 144.795 13.499 216 4.665 61.5-7.59 118.5-29.565 171.585-58.499 74.25-40.409 137.715-105.088 226.995-107.862 88.23-2.745 169.92 43.874 241.635 84.898 75.105 42.959 150.9 94.407 236.835 112.302 85.03 17.715 169.95-19.14 244.35-55.574a893.401 893.401 0 00119.65-70.738c40.58-28.424 74.48-63.434 113.33-93.133 94.5-72.268 243.96-26.654 349.5-24.494v9.974c-109.27-1.38-260.33-46.828-358.61 26.505-39.87 29.744-74.99 65.173-116.12 94.183a873.43 873.43 0 01-121.25 72.268c-73.74 35.759-159.9 69.358-243.45 49.919-82.92-19.305-155.085-70.649-227.13-113.638-68.28-40.724-146.445-86.623-231.585-83.473-88.14 3.27-152.31 68.714-225.345 109.378-54.6 30.404-113.145 54.433-176.43 64.333-72.375 11.31-146.73 5.625-219.96.195v-21.209z" fill="url(#paint7_linear_71_300)"/><path d="M-18 689.864c133.5 11.625 251.505 28.424 372-34.229 76.605-39.824 138.615-103.288 230.145-104.818 94.245-1.575 182.505 46.844 260.7 88.633 80.835 43.214 163.495 95.203 255.175 110.487 88.12 14.685 169.73-28.604 245.62-66.148a938.913 938.913 0 00116.29-67.499c39.5-27.179 70.95-61.093 107.74-90.672 87.38-70.259 233.76-24.525 332.31-21v9.39c-101.81-2.91-249.58-48.629-340.3 22.499-37.68 29.73-70.37 64.199-110.36 91.978a914.64 914.64 0 01-117.82 69.119c-75.15 37.049-158.44 77.308-245.11 61.258-89.015-16.499-168.5-68.158-246.71-111.192-75.21-41.399-160.5-88.888-251.88-86.698-90.48 2.175-153.18 66.148-228.705 106.257-51.69 27.465-106.98 47.354-166.74 52.604-70.245 6.15-141.855-3.495-212.355-9.45v-20.519z" fill="url(#paint8_linear_71_300)"/><path d="M-18 649.078c127.38 11.009 242.43 40.229 359.775-18.27 78.63-39.224 139.14-101.998 232.77-101.833 99.675.135 193.575 50.879 277.335 93.763 85.725 43.874 174.48 96.898 271.2 110.023 90.82 12.314 168.51-37.11 246-75.254 39-19.184 77.26-39.509 113.13-63.433 38.6-25.724 67.71-58.094 102.49-87.538 81-68.548 225.01-23.114 317.36-18.705v8.655c-95.08-4.065-240-49.694-323.86 19.575-35.71 29.519-65.89 62.653-104.87 89.098-36.27 24.599-75 45.809-114.54 65.383-76.73 37.964-156.28 84.613-246 71.293-94.5-14.054-180.57-66.538-264.18-110.052-81.33-42.329-172.755-91.933-270-91.213-92.7.69-153.9 63.704-231.645 103.198C228.21 704.096 111.975 680.307-18 668.877v-19.799z" fill="url(#paint9_linear_71_300)"/><path d="M-18 603.631c123 9.435 236.655 48.854 351.39-6.645 80.22-38.759 139.125-101.263 234.615-98.998 104.295 2.52 202.68 56.159 290.895 100.498 89.505 44.999 183.3 99.673 284.19 111.207 92.89 10.605 166.24-44.609 245.11-82.408 37.64-17.999 75.25-36.134 110.32-58.258 37.87-23.91 64.82-54.239 97.65-83.413 75.8-67.364 218.18-22.86 305.83-18.165v7.77c-89.55-4.65-232.5-49.649-310.5 18.164-33.69 29.31-61.5 60.614-99.73 85.378-35.27 23.1-73.26 42.224-111.45 60.839-78.26 38.084-153.58 90.793-245.64 79.498-99.17-12.165-190.88-65.998-278.855-110.472-86.4-43.634-183-95.923-285.315-97.303-94.71-1.275-154.335 61.274-233.91 100.213-115.815 56.698-229.92 21.449-354.6 11.189v-19.094z" fill="url(#paint10_linear_71_300)"/><path d="M-18 560.522c120.465 6.825 234.45 53.654 347.385 0 81.225-38.594 138.405-101.383 235.41-96.223 107.85 5.73 209.295 62.894 300.645 109.182 91.95 46.589 189.52 103.618 293.57 114.268 93.95 9.6 162.79-50.999 242.91-87.103 36.44-16.425 73.42-31.799 107.89-51.629 37.36-21.494 62.45-49.229 93.36-77.908 72.18-66.929 214.08-24.12 298.83-19.95v6.78c-85.72-4.5-227.69-48.134-301.19 18.87-31.72 28.919-57.55 57.838-95.11 80.443-34.71 20.879-72 37.499-108.87 54.659-79.62 37.004-150.33 95.382-244.03 85.423-102.84-10.92-198.98-66.854-290.06-112.708-90.195-45.404-190.5-100.992-297-105.237-96.405-3.855-154.335 58.753-235.215 97.377-113.58 54.239-227.25 10.185-348.525 2.13v-18.374z" fill="url(#paint11_linear_71_300)"/><path d="M-18 517.398c122.13 3.24 237.63 54.569 351.36-.72C408 480.424 462.765 419.99 552 423.635c114.96 4.785 222.885 70.408 319.065 120.897 93.645 49.154 193.955 110.053 301.045 119.487 91.76 8.1 153.51-55.108 232.69-87.298 35.81-14.549 72.7-26.594 107.29-43.409 37.83-18.374 61.76-41.684 90.92-70.498 70.35-69.388 214.07-29.144 298.99-26.159v5.685c-84.8-3.645-228.1-45.194-298.83 23.864-29.88 29.189-54.33 53.999-92.31 73.753-34.72 18.12-71.81 31.65-108 47.129-78.92 33.764-142.35 95.008-234.42 86.863-106.5-9.39-206.04-68.833-299.535-117.087-95.76-49.394-203.37-113.037-317.52-115.872-89.01-2.28-144.345 57.688-219 93.867-113.88 55.094-228.405 5.13-350.385.21v-17.669z" fill="url(#paint12_linear_71_300)"/><path d="M-18 474.289c122.715 1.5 242.025 60.208 356.91 6.36 74.88-35.069 128.745-96.763 217.965-91.318 114.765 7.02 221.85 74.833 317.355 126.552 92.685 50.189 192.69 112.797 299.55 122.487 90.57 8.22 149.42-57.269 229.7-83.878 35.11-11.64 71.55-19.38 105.81-32.834 38.11-15 61.03-35.324 89.3-63.434 71.17-70.738 216.39-35.999 303.41-34.109v4.875c-85.95-2.07-230.65-39.569-301.24 30.614-28.5 28.245-51.67 49.349-89.44 65.624-34.35 14.804-71.01 24.254-106.31 37.154-79.66 29.084-139.31 94.333-230.3 86.128-107.36-9.675-207.945-72.284-301.215-122.472C777.36 474.289 669.66 406.49 554.34 399.456c-89.385-5.43-143.55 55.918-218.055 91.977-114 55.184-231.675 1.125-354.285-.195v-16.949z" fill="url(#paint13_linear_71_300)"/><path d="M-18 431.165c77.055.585 144.195 17.084 216.975 34.814 53.13 12.945 100.89 10.68 150.945-10.875 76.68-32.999 128.85-94.767 219.18-88.723 112.35 7.5 215.88 75.254 308.4 127.497 88.68 50.129 185.03 112.963 288.69 121.993 90.21 7.859 145.61-60.209 226.79-82.499 34.75-9.554 70.75-13.349 105.23-23.039 39.8-11.19 63.11-29.864 94.64-54.704 83.64-65.878 212.01-49.499 309.15-46.319v6.18c-93.34-2.88-227.46-26.669-306.63 41.099-30.36 25.98-53.29 45.284-92.43 57.899-34.36 11.085-70.5 16.425-105.28 26.639-81 23.76-137.42 90.898-228 82.903-105-9.269-202.865-71.998-293.225-122.142C782.64 449.809 677.61 382.056 564.21 374.751c-90-5.82-142.785 55.859-218.835 89.758-49.32 21.99-97.02 26.444-150.24 15C123.6 464.044 57.24 448.099-18 447.409v-16.244z" fill="url(#paint14_linear_71_300)"/><path d="M-18 388.056c82.2.48 152.025 18.689 228 42.719 52.965 16.769 101.22 20.774 153.675.54 78-29.999 129-92.383 219.375-85.678 108.855 8.085 207.675 75.898 295.905 128.667 83.505 49.934 175.035 113.172 274.495 121.632 89.54 7.605 141.66-64.169 223.5-81.853 35.03-7.5 70.96-7.815 105.98-13.995 41.75-7.365 66.85-24.269 101.4-46.754 93.82-61.063 211.19-66.238 317.65-63.223v7.38c-103.24-3.255-223.89-6.12-314.31 56.638-33.46 23.235-57.81 40.799-98.82 49.499-34.79 7.41-70.7 8.925-105.56 17.19-81.68 19.334-134.91 89.698-224.75 82.003-101.1-8.655-194.475-71.728-279.975-121.737-89.91-52.604-190.5-120.373-300.765-128.247-90.495-6.465-141.87 55.618-219.405 86.818-51.54 20.744-99.555 19.049-152.565 3.66-74.775-21.69-143.535-39.24-223.83-39.735v-15.524z" fill="url(#paint15_linear_71_300)"/><path d="M-18 344.992c87.765.615 161.01 20.909 240.09 51.464 52.92 20.459 102.165 31.214 157.5 12.674 78.63-26.369 129.105-89.697 218.73-82.288 104.535 8.655 197.685 76.649 280.605 129.837 77.34 49.604 163.145 113.398 257.745 121.317 88.34 7.41 137.8-68.518 220.01-81.748 35.77-5.76 72-2.625 107.73-5.535 43.96-3.599 71.66-18.539 109.24-39.464 102.12-56.848 213.75-85.363 328.38-83.878v8.19c-111.96-2.145-225 18.195-324.48 76.408-36.53 21.39-63.27 37.02-106.5 41.909-35.49 4.005-71.55 2.01-107.04 8.385-82.11 14.745-132.43 89.203-221.25 81.733-96.34-8.115-184.215-71.683-263.775-121.497C794.175 409.49 699 341.542 592.89 333.082c-90-7.185-140.595 55.784-219 83.473-54.285 19.17-103.14 10.77-156-8.43-78-28.289-150-47.818-235.8-48.373l-.09-14.76z" fill="url(#paint16_linear_71_300)"/><path d="M-18 301.823c93.69.945 171 23.714 253.215 60.898 53.025 24 103.65 41.849 162.09 25.38 78.885-22.215 129.36-86.758 217.5-78.613 99.63 9.21 186.345 77.428 263.145 130.932 70.5 49.063 149.81 113.577 238.92 120.987 86.76 7.215 133.86-73.048 216.22-82.108 36.9-4.05 73.61 2.385 110.27 2.505 46.38.15 77.08-12.735 117.87-32.685 109.41-53.503 219-106.302 340.75-107.292v8.58c-119.53.105-229.5 44.894-336.55 99.387-39.72 20.22-69.41 33.78-114.98 34.845-36.36.855-72.87-4.5-109.38.105-82.3 10.394-130.16 89.217-217.5 81.943-90.96-7.575-172.495-71.834-245.26-121.107-78.81-53.414-167.73-121.588-269.025-130.587-88.695-7.905-139.11 56.233-217.965 79.843-57.39 17.189-107.52 1.68-160.5-21.165-81.225-35.009-157.125-56.998-248.835-57.748l.015-14.1z" fill="url(#paint17_linear_71_300)"/><path d="M-18 258.699c99.93 1.5 181.59 27.089 267.105 70.948 53.325 27.345 105.63 52.499 167.37 38.564 78.75-17.819 129.735-83.653 215.91-74.788 94.395 9.72 174.15 78.208 244.23 131.892 63 48.254 135.415 113.667 218.715 120.522 38.06 3.135 70.74-10.05 99.72-33.164 34.5-27.509 67.5-46.829 112.5-49.634 38.13-2.4 75.74 6.945 113.27 10.245 48.7 4.29 83.13-6.975 127-26.205 116.72-51.163 225.81-128.546 354.2-132.506v8.609c-126.38 3-235.5 72.749-349.94 124.497-42.82 19.395-76.2 31.335-124.13 28.2-37.24-2.43-74.59-10.77-112.3-7.86-44.57 3.435-77.5 22.619-111.96 49.739-29.58 23.264-63 35.999-101.52 32.819-85.17-7.005-159.765-72.088-225.12-120.657-72.225-53.639-154.185-122.052-250.23-131.622-86.82-8.64-137.595 56.804-216.42 76.003-60.72 14.79-112.5-8.115-165.675-34.499C160.215 298.088 79.95 273.369-18 272.094v-13.395z" fill="url(#paint18_linear_71_300)"/><path d="M-18 215.59c106.395 2.085 192.72 30.929 281.505 81.433 53.85 30.629 108 63.254 173.13 52.124 78.36-13.38 130.23-80.443 214.155-70.889 89.055 10.14 161.535 78.914 224.565 132.627 55.275 47.099 120.405 113.608 197.695 119.847 36.54 3 66.78-11.819 93.75-34.379 34.5-28.829 68.21-48.539 114.25-49.379 39.56-.72 77.99 11.85 116.46 17.88 51.2 8.04 88.99-.99 136.34-19.889 72.54-28.935 137.92-64.139 203.42-104.788 53.07-32.999 102.27-50.474 164.73-53.774v8.325c-61.35 2.865-111.23 19.065-164.33 50.009-64.9 37.829-129.3 71.998-199.69 100.858-46.32 18.974-83.13 28.679-133.59 21.749-38.19-5.235-76.38-16.86-115.5-15.645-45.7 1.425-79.23 21-113.71 49.499-27.58 22.74-58.5 37.019-95.54 34.004-79.06-6.434-146.355-72.598-204-119.997-65.13-53.714-139.755-122.412-230.385-132.432-84.615-9.359-136.185 57.359-214.68 71.999-64.125 11.999-117.72-18.45-171.39-48.119-87.78-48.659-172.71-76.498-277.185-78.388V215.59z" fill="url(#paint19_linear_71_300)"/><path d="M-18 172.496c113.04 2.85 204.165 35.159 296.22 92.263 54.6 33.869 110.655 73.903 179.16 65.998 78-9 130.74-76.903 212.49-67.003 83.745 10.155 149.085 79.633 204.78 133.032 47.505 45.554 105.225 113.337 176.55 118.857 34.99 2.715 62.79-13.815 87.72-35.729 34.08-29.925 69.07-50.924 115.89-49.169 41.14 1.5 80.05 16.814 119.57 25.499 53.62 11.835 94.7 5.13 145.61-13.499 79.76-29.25 149.03-67.679 216-118.018 52.86-39.764 99.5-61.708 166.07-66.478v7.77c-65.38 4.365-112.79 25.124-165.71 62.998-66.63 47.654-134.71 85.198-212.49 114.373-49.91 18.734-90.1 26.099-143.06 15.329-39.27-7.98-78-22.394-118.75-23.399-46.5-1.14-81.37 19.664-115.5 49.184-25.5 22.109-53.99 38.129-89.38 35.339-72.975-5.73-132.75-73.139-182.415-119.172-57.66-53.459-125.085-122.893-210.24-132.942-82.38-9.72-134.805 57.838-213 68.068-67.5 8.865-123.09-29.129-177.45-62.098C183 218.395 93.18 187.076-18 184.496v-12z" fill="url(#paint20_linear_71_300)"/><path d="M-18 129.357c118.5 3.615 214.8 38.819 309.18 101.998 54.825 36.734 112.8 84.283 183.615 81.373 82.77-3.345 138.615-78.733 224.205-61.739 74.19 14.775 129.21 80.428 176.04 131.397 39.39 42.869 90 111.537 154.5 117.582 37.5 3.51 63.54-19.499 88.5-42.494 33.16-30.584 70.14-47.999 116.28-43.139 42.21 4.5 81.32 22.965 121.5 33.944 56.52 15.42 102.63 8.805 157.5-10.154 84.79-29.265 156.84-71.039 222.87-129.702 51.81-46.019 95.55-71.429 165.81-77.428v7.004c-69.09 5.685-113.58 30.12-165.57 74.429a676.892 676.892 0 01-219.9 126.447c-54 18.944-99.27 26.174-155.16 11.804-40.03-10.304-79.02-27.929-120.89-31.859-45.99-4.335-82.77 13.08-115.99 43.379-25.5 23.25-52.11 45.599-90 41.999-66-6.27-118.395-74.548-159.705-117.972-48.585-50.999-105.405-116.712-180.81-131.457-86.235-16.845-141.66 58.259-224.625 62.819-69.975 3.854-127.5-41.834-182.01-77.714C193.8 178.241 98.805 143.997-18 140.622v-11.265z" fill="url(#paint21_linear_71_300)"/><path d="M-18 86.233c125.16 4.5 226.32 43.424 323.79 113.052 55.98 39.989 115.68 94.498 189.615 95.323 82.215.915 139.62-75.688 222.915-58.019 69.885 14.82 118.2 80.444 158.625 130.902 32.1 40.079 76.14 111.223 135.005 115.753 35.85 2.76 60-22.32 83.08-44.474 32.88-31.65 70.38-49.214 117-41.999 43.41 6.719 82.8 28.499 123.67 42.134 58.73 19.589 107.72 15.344 166.32-3.585 91.08-29.43 168.01-73.799 233.82-141.447 17.9-18.405 34.93-37.919 55.6-53.279 33.85-25.184 69.57-31.289 110.58-35.159v6c-40.61 3.78-76.13 9.795-110.04 34.094-20.76 14.88-38.06 33.854-56.12 51.794-65.91 65.488-141.63 109.272-231.21 138.687-57.71 18.944-106.04 23.789-164.25 5.235-40.74-12.975-80.1-33.945-123.22-40.094-46.5-6.615-83.9 10.934-116.87 42.329-23.53 22.409-48 46.843-84.35 43.964-60.16-4.77-105.895-75.539-139.645-116.248-42-50.594-91.86-116.247-162.735-131.067-83.805-17.534-140.85 58.799-223.17 58.919-73.17.105-132.48-52.724-188.16-91.918C205.5 139.062 105.525 101.068-18 96.793v-10.56z" fill="url(#paint22_linear_71_300)"/><path d="M-18 43.109c131.745 5.385 237.585 48.134 338.055 124.002 57.27 43.244 118.395 104.548 195.33 109.227 82.08 4.995 140.82-72.643 222.48-54.553 66.24 14.669 108.45 80.023 143.07 129.852 25.95 37.334 63.315 109.962 117.42 113.352 34.205 2.13 57.465-25.574 78.545-46.724 32.42-32.519 70-50.129 116.67-40.499 44.31 9.21 83.59 34.409 124.81 50.789 60.48 23.999 111.94 22.289 174.09 3.54 96.85-29.219 179.04-75.643 243.88-151.722 17.16-20.144 33-41.774 53.18-58.993 33.53-28.5 69.93-34.754 112.5-38.879v4.995c-42.22 4.094-78.46 10.334-112.09 38.129-20.34 16.814-36.43 37.994-53.78 57.748-65.16 74.219-146.16 120.238-241.7 149.532-61.35 18.809-112.3 21.134-172.42-1.845-41.18-15.75-80.52-40.154-124.65-48.764-46.68-9.105-84.29 8.49-116.84 40.829-21.49 21.375-45 48.479-79.5 46.184-55.135-3.66-93.985-75.973-121.255-113.997-35.865-49.919-79.395-115.318-146.4-130.092-81.96-18-140.43 59.398-222.495 55.318-76.26-3.795-137.085-63.568-194.055-106.077C217.035 100.018 112.245 58.139-18 52.964v-9.855z" fill="url(#paint23_linear_71_300)"/><path d="M-18 0c138.165 6.225 248.49 52.814 351.78 134.787 58.5 46.499 120.855 114.297 200.565 122.997 82.5 9 142.245-69.718 223.125-51.509 63.405 14.295 100.32 79.018 130.005 128.187 20.82 34.499 52.185 108.283 102.24 110.293 32.745 1.304 55.695-28.965 75.165-49.259 31.78-33.15 68.78-50.714 115.14-38.264 44.83 11.999 83.51 40.814 124.71 59.998 61.63 28.769 115.06 29.729 180.6 11.4 101.88-28.499 189.56-76.273 252.76-160.076 16.3-21.585 30.67-44.999 50.27-63.824 32.85-31.499 69.9-37.499 113.64-41.459v3.75c-43.5 4.08-80.45 10.11-113.46 41.024-19.75 18.495-34.5 41.564-51 62.879-63.62 82.243-150.09 129.777-250.98 158.486-64.83 18.449-117.9 18.074-179.34-9.66-41.25-18.614-80.1-46.619-124.86-58.019-46.5-11.849-83.66 5.73-115.5 38.775-19.79 20.444-42.75 50.203-75.78 48.688-50.835-2.325-83.4-75.913-105.21-110.997-30.645-49.289-68.595-114.192-132.54-128.592-81-18.225-140.565 60.224-222.885 52.124-79.14-7.8-141.21-74.263-199.5-119.997C228.225 60.959 118.83 15.18-18 9.135V0z" fill="url(#paint24_linear_71_300)"/><defs><linearGradient id="paint0_linear_71_300" x1="-30.985" y1="691.822" x2="1826.13" y2="1115" gradientUnits="userSpaceOnUse"><stop stop-color="#0FF"/><stop offset=".693" stop-color="#fff"/><stop offset="1" stop-color="#fff" stop-opacity=".24"/></linearGradient><linearGradient id="paint1_linear_71_300" x1="-30.985" y1="675.122" x2="1811.12" y2="1128.17" gradientUnits="userSpaceOnUse"><stop stop-color="#0FF"/><stop offset=".693" stop-color="#fff"/><stop offset="1" stop-color="#fff" stop-opacity=".24"/></linearGradient><linearGradient id="paint2_linear_71_300" x1="-30.984" y1="656.12" x2="1794.13" y2="1140.1" gradientUnits="userSpaceOnUse"><stop stop-color="#0FF"/><stop offset=".693" stop-color="#fff"/><stop offset="1" stop-color="#fff" stop-opacity=".24"/></linearGradient><linearGradient id="paint3_linear_71_300" x1="-30.985" y1="634.681" x2="1775.49" y2="1150.12" gradientUnits="userSpaceOnUse"><stop stop-color="#0FF"/><stop offset=".693" stop-color="#fff"/><stop offset="1" stop-color="#fff" stop-opacity=".24"/></linearGradient><linearGradient id="paint4_linear_71_300" x1="-30.985" y1="611.377" x2="1754.76" y2="1158.78" gradientUnits="userSpaceOnUse"><stop stop-color="#0FF"/><stop offset=".693" stop-color="#fff"/><stop offset="1" stop-color="#fff" stop-opacity=".24"/></linearGradient><linearGradient id="paint5_linear_71_300" x1="-30.985" y1="587.103" x2="1731.4" y2="1167.53" gradientUnits="userSpaceOnUse"><stop stop-color="#0FF"/><stop offset=".693" stop-color="#fff"/><stop offset="1" stop-color="#fff" stop-opacity=".24"/></linearGradient><linearGradient id="paint6_linear_71_300" x1="-30.985" y1="562.724" x2="1711.33" y2="1169.38" gradientUnits="userSpaceOnUse"><stop stop-color="#0FF"/><stop offset=".693" stop-color="#fff"/><stop offset="1" stop-color="#fff" stop-opacity=".24"/></linearGradient><linearGradient id="paint7_linear_71_300" x1="-30.984" y1="540.483" x2="1712.83" y2="1145.06" gradientUnits="userSpaceOnUse"><stop stop-color="#0FF"/><stop offset=".693" stop-color="#fff"/><stop offset="1" stop-color="#fff" stop-opacity=".24"/></linearGradient><linearGradient id="paint8_linear_71_300" x1="-30.985" y1="518.973" x2="1714.27" y2="1121.87" gradientUnits="userSpaceOnUse"><stop stop-color="#0FF"/><stop offset=".693" stop-color="#fff"/><stop offset="1" stop-color="#fff" stop-opacity=".24"/></linearGradient><linearGradient id="paint9_linear_71_300" x1="-30.985" y1="501.158" x2="1713.54" y2="1105.11" gradientUnits="userSpaceOnUse"><stop stop-color="#0FF"/><stop offset=".693" stop-color="#fff"/><stop offset="1" stop-color="#fff" stop-opacity=".24"/></linearGradient><linearGradient id="paint10_linear_71_300" x1="-30.985" y1="480.482" x2="1709.08" y2="1089.97" gradientUnits="userSpaceOnUse"><stop stop-color="#0FF"/><stop offset=".693" stop-color="#fff"/><stop offset="1" stop-color="#fff" stop-opacity=".24"/></linearGradient><linearGradient id="paint11_linear_71_300" x1="-30.985" y1="464.771" x2="1698.45" y2="1087.34" gradientUnits="userSpaceOnUse"><stop stop-color="#0FF"/><stop offset=".693" stop-color="#fff"/><stop offset="1" stop-color="#fff" stop-opacity=".24"/></linearGradient><linearGradient id="paint12_linear_71_300" x1="-30.985" y1="451.843" x2="1678.89" y2="1097.32" gradientUnits="userSpaceOnUse"><stop stop-color="#0FF"/><stop offset=".693" stop-color="#fff"/><stop offset="1" stop-color="#fff" stop-opacity=".24"/></linearGradient><linearGradient id="paint13_linear_71_300" x1="-30.985" y1="419.406" x2="1691.73" y2="1050.01" gradientUnits="userSpaceOnUse"><stop stop-color="#0FF"/><stop offset=".693" stop-color="#fff"/><stop offset="1" stop-color="#fff" stop-opacity=".24"/></linearGradient><linearGradient id="paint14_linear_71_300" x1="-30.985" y1="396.205" x2="1689.35" y2="1029.61" gradientUnits="userSpaceOnUse"><stop stop-color="#0FF"/><stop offset=".693" stop-color="#fff"/><stop offset="1" stop-color="#fff" stop-opacity=".24"/></linearGradient><linearGradient id="paint15_linear_71_300" x1="-30.985" y1="375.321" x2="1688.63" y2="1009.55" gradientUnits="userSpaceOnUse"><stop stop-color="#0FF"/><stop offset=".693" stop-color="#fff"/><stop offset="1" stop-color="#fff" stop-opacity=".24"/></linearGradient><linearGradient id="paint16_linear_71_300" x1="-30.985" y1="356.429" x2="1688.67" y2="990.671" gradientUnits="userSpaceOnUse"><stop stop-color="#0FF"/><stop offset=".693" stop-color="#fff"/><stop offset="1" stop-color="#fff" stop-opacity=".24"/></linearGradient><linearGradient id="paint17_linear_71_300" x1="-31" y1="332.833" x2="1699.51" y2="954.09" gradientUnits="userSpaceOnUse"><stop stop-color="#0FF"/><stop offset=".693" stop-color="#fff"/><stop offset="1" stop-color="#fff" stop-opacity=".24"/></linearGradient><linearGradient id="paint18_linear_71_300" x1="-30.985" y1="292.867" x2="1735.09" y2="868.292" gradientUnits="userSpaceOnUse"><stop stop-color="#0FF"/><stop offset=".693" stop-color="#fff"/><stop offset="1" stop-color="#fff" stop-opacity=".24"/></linearGradient><linearGradient id="paint19_linear_71_300" x1="-30.985" y1="252.99" x2="1763.56" y2="787.161" gradientUnits="userSpaceOnUse"><stop stop-color="#0FF"/><stop offset=".693" stop-color="#fff"/><stop offset="1" stop-color="#fff" stop-opacity=".24"/></linearGradient><linearGradient id="paint20_linear_71_300" x1="-30.985" y1="213.128" x2="1786.2" y2="711.034" gradientUnits="userSpaceOnUse"><stop stop-color="#0FF"/><stop offset=".693" stop-color="#fff"/><stop offset="1" stop-color="#fff" stop-opacity=".24"/></linearGradient><linearGradient id="paint21_linear_71_300" x1="-30.985" y1="173.21" x2="1804.28" y2="639.12" gradientUnits="userSpaceOnUse"><stop stop-color="#0FF"/><stop offset=".693" stop-color="#fff"/><stop offset="1" stop-color="#fff" stop-opacity=".24"/></linearGradient><linearGradient id="paint22_linear_71_300" x1="-30.985" y1="133.15" x2="1818.44" y2="571.995" gradientUnits="userSpaceOnUse"><stop stop-color="#0FF"/><stop offset=".693" stop-color="#fff"/><stop offset="1" stop-color="#fff" stop-opacity=".24"/></linearGradient><linearGradient id="paint23_linear_71_300" x1="-30.985" y1="92.935" x2="1829.7" y2="508.675" gradientUnits="userSpaceOnUse"><stop stop-color="#0FF"/><stop offset=".693" stop-color="#fff"/><stop offset="1" stop-color="#fff" stop-opacity=".24"/></linearGradient><linearGradient id="paint24_linear_71_300" x1="-30.985" y1="52.504" x2="1838.51" y2="448.901" gradientUnits="userSpaceOnUse"><stop stop-color="#0FF"/><stop offset=".693" stop-color="#fff"/><stop offset="1" stop-color="#fff" stop-opacity=".24"/></linearGradient></defs></svg>